<svg width="250" height="250" viewBox="0 0 250 250" fill="none" xmlns="http://www.w3.org/2000/svg">
<path d="M85.6443 231.157C77.6676 229.599 69.9219 224.974 64.7534 218.682C62.6179 216.082 61.8324 215.455 59.7003 214.648C46.6215 209.698 37.7681 197.201 37.7681 183.689L37.7681 180.192L35.7073 178.873C22.5309 170.44 18.2485 154.491 25.5201 140.933L27.1537 137.888L25.5231 134.861C23.0499 130.27 22.0342 126.342 22.0342 121.368C22.0342 114.249 24.1807 108.432 28.8603 102.87L31.0786 100.234L30.6158 98.0614C29.3101 91.9312 29.6148 87.2936 31.6874 81.7497C33.2425 77.5899 35.2975 74.6271 39.1167 71.0387C42.9851 67.404 46.7181 65.2379 51.5312 63.8348C55.3504 62.7215 55.0406 63.5337 53.9789 57.4164C52.491 48.8439 57.3409 39.9857 66.0506 35.3682C67.4317 34.636 70.1711 32.9296 72.1382 31.5762C82.5146 24.4369 94.8047 19.41 104.688 18.2627C112.367 17.3712 117.484 18.7087 122.394 22.8902L124.979 25.0916L127.564 22.8902C132.474 18.7087 137.592 17.3712 145.27 18.2626C155.154 19.41 167.444 24.4369 177.82 31.5762C179.787 32.9296 182.527 34.636 183.908 35.3682C192.617 39.9857 197.467 48.8438 195.98 57.4164C194.918 63.5337 194.608 62.7214 198.427 63.8348C203.24 65.2378 206.973 67.404 210.842 71.0387C218.789 78.5056 221.603 87.4504 219.343 98.0614L218.88 100.234L221.098 102.87C228.923 112.17 230.178 124.201 224.435 134.861L222.805 137.888L224.438 140.933C227.968 147.515 228.915 155.086 227.055 161.854C225.204 168.584 220.448 174.907 214.251 178.873L212.19 180.192L212.19 183.689C212.19 197.201 203.337 209.698 190.258 214.648C188.126 215.455 187.341 216.082 185.205 218.682C178.555 226.778 167.566 231.979 157.068 232C145.338 232.023 134.109 226.476 127.402 217.345C126.23 215.748 125.139 214.442 124.979 214.442C124.819 214.442 123.729 215.748 122.556 217.345C117.078 224.803 108.723 229.873 99.4089 231.391C94.4884 232.193 90.6159 232.127 85.6443 231.157ZM99.6901 224.268C113.208 221.303 122.633 208.807 120.914 196.128C119.556 186.112 112.651 177.916 102.727 174.542C98.3235 173.045 97.1598 171.719 98.0846 169.251C98.7329 167.521 100.641 166.751 103.04 167.253C107.576 168.201 113.92 171.651 118.006 175.392C119.381 176.65 120.703 177.566 120.944 177.427C121.556 177.075 121.538 96.5605 120.926 93.5413C119.973 88.8455 116.21 85.3223 111.152 84.3894C107.772 83.7659 106.446 83.132 105.764 81.8139C105.086 80.5012 105.747 78.3204 107.015 77.6892C109.122 76.6402 115.947 77.7349 119.035 79.6173C121.502 81.1212 121.437 81.7875 121.292 56.6901C121.142 30.8202 121.309 32.1655 117.81 28.6348C116.758 27.5723 114.962 26.3726 113.621 25.8362C111.546 25.0057 110.781 24.925 107.001 25.1379C101.119 25.4691 95.9242 26.9659 88.3415 30.5146C82.9697 33.0286 82.9884 32.9427 87.3721 34.9634C91.695 36.956 95.4452 40.108 97.5445 43.5132C99.2399 46.2631 99.2493 47.334 97.5918 48.8759C95.3583 50.9536 93.1901 50.3389 91.1109 47.0385C89.5763 44.6026 86.7509 42.2944 83.6754 40.964C81.5755 40.0556 80.5038 39.8711 77.3278 39.8711C74.1356 39.8711 73.0837 40.054 70.9362 40.9827C63.5581 44.1736 59.6317 51.7349 61.7812 58.6131C62.6569 61.4151 63.8042 62.6436 65.5453 62.6436C67.516 62.6436 71.8301 63.8096 74.8966 65.171C84.5427 69.4535 91.1463 77.9486 92.6508 88.0108C93.2591 92.079 92.6963 93.8422 90.5195 94.6883C87.767 95.7581 85.4492 93.9281 85.4196 90.6615C85.3973 88.1999 84.125 83.9739 82.5987 81.2914C80.6842 77.9266 75.9069 73.4983 72.4303 71.8658C62.7829 67.3356 52.0636 68.9134 44.4648 75.982C39.3923 80.7007 36.9946 86.5216 37.4707 92.9615C37.6068 94.8015 38.0328 97.1303 38.4174 98.1367C39.7116 101.523 39.4409 102.457 36.2179 105.724C26.9154 115.153 27.0469 128.04 36.5356 136.862C41.0848 141.091 45.2643 142.912 51.9494 143.578C54.2716 143.81 55.2663 144.119 56.0562 144.853C57.479 146.177 57.4288 148.101 55.9349 149.49C54.8202 150.527 54.6081 150.564 50.8776 150.365C45.8973 150.1 40.3438 148.357 36.0814 145.721C34.3465 144.648 32.7914 143.77 32.6256 143.77C31.9816 143.77 30.1078 148.528 29.6348 151.364C28.1668 160.165 33.0499 169.432 41.4896 173.863C45.6378 176.041 45.5945 175.942 45.6161 183.208C45.6338 189.025 45.7363 189.818 46.8352 192.616C49.8334 200.25 55.3193 205.392 63.8968 208.608C67.3502 209.903 67.5874 210.08 69.5105 212.796C72.0425 216.371 76.3127 220.103 79.903 221.878C85.5572 224.675 93.4764 225.631 99.6901 224.268L99.6901 224.268ZM86.8083 208.689C85.7751 207.728 85.5199 207.045 85.2741 204.585C84.7128 198.967 82.5029 194.584 78.2269 190.606C74.0023 186.676 69.3035 184.601 63.456 184.083C59.0212 183.69 57.1756 182.262 57.7819 179.695C58.1984 177.93 59.886 177.052 62.8955 177.032L65.4149 177.015L65.5348 175.342C65.9458 169.605 68.7748 162.772 72.588 158.305C77.9381 152.038 87.573 147.534 95.6265 147.534C98.0749 147.534 98.6594 147.685 99.6005 148.56C101.034 149.893 101.06 151.841 99.6616 153.141C98.8685 153.879 97.876 154.185 95.5108 154.42C91.0752 154.862 87.2746 156.064 84.1228 158.022C77.1639 162.345 72.9442 169.619 73.3584 176.578L73.5065 179.069L76.3188 180.551C86.0589 185.684 92.3772 195.012 92.7276 204.776C92.8308 207.649 92.7666 207.875 91.5755 208.83C89.9168 210.161 88.34 210.114 86.8081 208.689L86.8083 208.689ZM67.0094 138.418C65.3696 136.892 65.254 135.45 66.6512 133.947C67.4467 133.091 68.2973 132.776 70.635 132.47C74.5675 131.955 77.294 130.819 79.8498 128.631C82.1372 126.673 83.6371 124.675 84.428 122.531C85.0058 120.965 85.0974 121.027 80.2498 119.722C67.5322 116.299 58.0021 105.047 57.82 93.2409C57.7758 90.3749 57.8551 90.1089 59.034 89.1637C60.6096 87.9005 62.0997 87.878 63.6198 89.0942C64.5929 89.8728 64.8701 90.5793 65.2196 93.1714C65.7676 97.2365 66.6631 99.9889 68.2803 102.58C71.2829 107.389 76.1256 111.107 81.7035 112.885C84.0903 113.646 85.7132 113.855 89.2406 113.855C95.6591 113.854 99.5628 112.548 104.773 108.659C106.805 107.142 107.986 106.552 108.994 106.552C112.02 106.552 113.68 109.223 112.093 111.536C109.887 114.75 102.359 118.896 96.2189 120.279L92.8577 121.036L91.7178 124.162C88.5287 132.907 81.1526 138.378 71.1677 139.405C68.478 139.682 68.3306 139.647 67.0094 138.418L67.0094 138.418ZM163.821 224.07C170.584 222.462 176.392 218.523 180.448 212.796C182.371 210.08 182.608 209.903 186.062 208.608C194.639 205.392 200.125 200.25 203.123 192.616C204.222 189.818 204.325 189.025 204.342 183.208C204.364 175.942 204.321 176.041 208.469 173.863C216.885 169.445 221.742 160.278 220.334 151.472C219.875 148.599 217.993 143.77 217.333 143.77C217.167 143.77 215.612 144.648 213.877 145.721C209.615 148.357 204.061 150.1 199.081 150.365C195.35 150.564 195.138 150.527 194.024 149.49C192.53 148.101 192.479 146.177 193.902 144.853C194.692 144.119 195.687 143.81 198.009 143.578C204.694 142.912 208.874 141.091 213.423 136.862C222.912 128.04 223.043 115.153 213.74 105.724C210.518 102.457 210.247 101.523 211.541 98.1367C211.926 97.1303 212.352 94.8014 212.488 92.9615C212.964 86.5215 210.566 80.7006 205.494 75.982C197.895 68.9133 187.175 67.3356 177.528 71.8658C174.051 73.4983 169.274 77.9266 167.36 81.2914C165.833 83.9739 164.561 88.1999 164.539 90.6615C164.509 93.928 162.191 95.7581 159.439 94.6883C157.262 93.8422 156.699 92.079 157.308 88.0108C158.812 77.9486 165.416 69.4534 175.062 65.171C178.128 63.8096 182.442 62.6436 184.413 62.6436C186.154 62.6436 187.302 61.415 188.177 58.613C190.327 51.7349 186.4 44.1736 179.022 40.9827C176.875 40.054 175.823 39.871 172.631 39.871C169.455 39.871 168.383 40.0556 166.283 40.964C163.207 42.2944 160.382 44.6026 158.848 47.0385C156.768 50.3389 154.6 50.9536 152.367 48.8759C150.709 47.334 150.718 46.2631 152.414 43.5131C154.513 40.108 158.263 36.956 162.586 34.9634C166.97 32.9427 166.989 33.0285 161.617 30.5146C154.034 26.9659 148.839 25.4691 142.957 25.1379C139.177 24.925 138.412 25.0057 136.337 25.8361C134.997 26.3726 133.201 27.5723 132.148 28.6348C128.759 32.0549 128.819 31.7031 128.659 49.2133C128.573 58.6389 128.684 65.0029 128.94 65.2406C129.205 65.4876 130.38 65.1576 132.085 64.3572C135.652 62.6823 140.523 61.8946 142.331 62.7005C144.258 63.5599 144.951 65.1709 144.155 66.9432C143.468 68.4725 142.207 69.1014 138.986 69.5207C134.879 70.0554 131.245 72.8469 129.651 76.6929C128.83 78.6712 128.8 80.9379 128.8 141.052L128.8 203.36L130.051 206.795C133.171 215.365 141.018 222.208 150.064 224.249C153.902 225.115 159.751 225.039 163.821 224.07L163.821 224.07ZM146.312 201.288C145.403 200.443 145.209 199.849 145.209 197.921C145.209 194.601 146.394 190.052 148.162 186.586C151.127 180.771 155.623 176.348 161.945 173.025C164.559 171.651 164.774 171.427 164.907 169.938C165.148 167.228 164.094 162.782 162.455 159.602C158.947 152.792 150.064 147.141 142.834 147.12C140.401 147.114 138.092 146.1 137.564 144.808C136.874 143.12 137.012 142.548 138.431 141.229C140.004 139.766 141.994 139.641 147.342 140.668C155.575 142.25 162.935 146.988 167.523 153.659C170.292 157.686 171.551 161.299 172.417 167.711L172.686 169.697L175.376 169.697C177.633 169.697 178.244 169.862 179.169 170.723C180.598 172.052 180.629 174.004 179.241 175.295C178.439 176.041 177.355 176.357 174.363 176.716C167.321 177.562 161.852 180.418 157.58 185.482C155.004 188.534 153.461 192.129 152.882 196.427C152.63 198.293 152.212 200.189 151.953 200.64C150.864 202.533 148.003 202.862 146.312 201.288L146.312 201.288ZM183.644 135.203C180.047 134.464 177.356 133.337 174.732 131.47C170.457 128.43 167.973 125.225 166.3 120.591L165.103 117.276L161.75 116.54C157.398 115.585 153.869 114.112 150.376 111.794C145.211 108.365 143.992 105.973 146.312 103.815C148.093 102.158 149.971 102.421 152.878 104.736C163.716 113.369 179.485 111.737 188.085 101.095C190.571 98.0186 191.835 94.9569 192.603 90.1517C193.225 86.2586 193.916 85.0708 195.819 84.6266C197.468 84.2417 199.49 85.4026 199.959 87.0031C200.843 90.0195 199.287 96.8381 196.644 101.534C192.606 108.708 184.879 114.394 176.476 116.374C175.006 116.72 173.617 117.176 173.391 117.387C172.784 117.951 174.929 122.03 176.898 124.057C178.996 126.218 183.33 128.231 186.891 128.699C190.216 129.136 191.422 129.698 191.982 131.068C192.653 132.708 192.506 133.291 191.096 134.602C189.593 136.001 188.105 136.121 183.644 135.203Z" fill="url(#paint0_linear_3_9)"/>
<defs>
<linearGradient id="paint0_linear_3_9" x1="125" y1="18" x2="125" y2="232" gradientUnits="userSpaceOnUse">
<stop stop-color="#FD83FF"/>
<stop offset="1" stop-color="#41A4FF"/>
</linearGradient>
</defs>
</svg>
