<?xml version="1.0" encoding="UTF-8"?>
<!DOCTYPE svg PUBLIC "-//W3C//DTD SVG 1.1//EN" "http://www.w3.org/Graphics/SVG/1.1/DTD/svg11.dtd">
<svg xmlns="http://www.w3.org/2000/svg" version="1.1" width="591px" height="591px" style="shape-rendering:geometricPrecision; text-rendering:geometricPrecision; image-rendering:optimizeQuality; fill-rule:evenodd; clip-rule:evenodd" xmlns:xlink="http://www.w3.org/1999/xlink">
<g><path style="opacity:0.216" fill="#542d55" d="M 236.5,43.5 C 234.898,45.0739 232.898,45.7406 230.5,45.5C 232.214,44.2616 234.214,43.595 236.5,43.5 Z"/></g>
<g><path style="opacity:0.302" fill="#582f59" d="M 353.5,43.5 C 355.553,43.4021 357.22,44.0687 358.5,45.5C 356.447,45.5979 354.78,44.9313 353.5,43.5 Z"/></g>
<g><path style="opacity:0.847" fill="#a556a8" d="M 229.5,45.5 C 225.915,47.8061 221.915,49.1394 217.5,49.5C 221.098,47.2597 225.098,45.9264 229.5,45.5 Z"/></g>
<g><path style="opacity:0.498" fill="#904c93" d="M 366.5,47.5 C 369.785,47.9281 372.785,48.9281 375.5,50.5C 372.084,50.4725 369.084,49.4725 366.5,47.5 Z"/></g>
<g><path style="opacity:0.996" fill="#ec7ff5" d="M 268.5,42.5 C 270.438,44.1628 272.772,44.8294 275.5,44.5C 282.641,47.7964 289.141,52.1298 295,57.5C 297.663,55.6664 300.163,53.6664 302.5,51.5C 304.027,51.573 305.027,50.9063 305.5,49.5C 310.912,44.9829 317.246,42.4829 324.5,42C 334.241,41.2449 343.908,41.7449 353.5,43.5C 354.78,44.9313 356.447,45.5979 358.5,45.5C 361.495,45.2938 364.162,45.9605 366.5,47.5C 369.084,49.4725 372.084,50.4725 375.5,50.5C 378.579,51.304 381.579,52.304 384.5,53.5C 384.821,55.0481 385.821,55.7148 387.5,55.5C 394.719,57.8953 401.386,61.2287 407.5,65.5C 407.631,66.2389 407.464,66.9056 407,67.5C 395.448,66.5569 383.614,66.5569 371.5,67.5C 363.019,64.5461 354.353,62.2128 345.5,60.5C 341.777,59.0033 337.777,58.3367 333.5,58.5C 330.833,58.6667 328.167,58.8333 325.5,59C 324.584,59.2784 323.918,59.7784 323.5,60.5C 308.578,66.8666 302.244,78.2 304.5,94.5C 303.596,95.209 303.263,96.209 303.5,97.5C 302.778,97.9175 302.278,98.5842 302,99.5C 300.111,98.9026 298.278,98.5693 296.5,98.5C 295.808,99.0253 295.308,99.6919 295,100.5C 292.902,99.0579 290.402,98.3913 287.5,98.5C 286.833,94.0178 286.166,89.6845 285.5,85.5C 284.539,83.7354 284.205,81.7354 284.5,79.5C 284.946,76.9899 284.28,74.9899 282.5,73.5C 278.386,68.0458 273.386,63.7125 267.5,60.5C 264.135,58.9608 260.469,58.2942 256.5,58.5C 252.223,58.3367 248.223,59.0033 244.5,60.5C 236.693,62.0349 229.026,64.0349 221.5,66.5C 218.881,66.7683 216.381,66.435 214,65.5C 213.667,66.1667 213.333,66.8333 213,67.5C 208.466,65.1033 203.966,65.1033 199.5,67.5C 194.426,66.5969 189.926,66.5969 186,67.5C 184.961,66.7562 184.461,65.7562 184.5,64.5C 186.027,64.573 187.027,63.9063 187.5,62.5C 196.978,57.0057 206.978,52.6724 217.5,49.5C 221.915,49.1394 225.915,47.8061 229.5,45.5C 229.833,45.5 230.167,45.5 230.5,45.5C 232.898,45.7406 234.898,45.0739 236.5,43.5C 247.119,41.4146 257.786,41.0813 268.5,42.5 Z"/></g>
<g><path style="opacity:0.239" fill="#613362" d="M 305.5,49.5 C 305.027,50.9063 304.027,51.573 302.5,51.5C 302.973,50.0937 303.973,49.427 305.5,49.5 Z"/></g>
<g><path style="opacity:0.388" fill="#633564" d="M 268.5,42.5 C 271.067,42.7215 273.401,43.3882 275.5,44.5C 272.772,44.8294 270.438,44.1628 268.5,42.5 Z"/></g>
<g><path style="opacity:0.051" fill="#6c3a70" d="M 384.5,53.5 C 385.71,53.9321 386.71,54.5987 387.5,55.5C 385.821,55.7148 384.821,55.0481 384.5,53.5 Z"/></g>
<g><path style="opacity:0.338" fill="#904d95" d="M 267.5,60.5 C 259.838,59.2136 252.172,59.2136 244.5,60.5C 248.223,59.0033 252.223,58.3367 256.5,58.5C 260.469,58.2942 264.135,58.9608 267.5,60.5 Z"/></g>
<g><path style="opacity:0.205" fill="#8b4a90" d="M 345.5,60.5 C 338.154,59.2602 330.821,59.2602 323.5,60.5C 323.918,59.7784 324.584,59.2784 325.5,59C 328.167,58.8333 330.833,58.6667 333.5,58.5C 337.777,58.3367 341.777,59.0033 345.5,60.5 Z"/></g>
<g><path style="opacity:0.318" fill="#603465" d="M 187.5,62.5 C 187.027,63.9063 186.027,64.573 184.5,64.5C 184.973,63.0937 185.973,62.427 187.5,62.5 Z"/></g>
<g><path style="opacity:0.322" fill="#5e3563" d="M 177.5,68.5 C 177.027,69.9063 176.027,70.573 174.5,70.5C 174.973,69.0937 175.973,68.427 177.5,68.5 Z"/></g>
<g><path style="opacity:0.871" fill="#84488a" d="M 375.5,69.5 C 378.313,69.0246 380.313,70.0246 381.5,72.5C 379.456,71.4918 377.456,70.4918 375.5,69.5 Z"/></g>
<g><path style="opacity:0.361" fill="#66396c" d="M 171.5,72.5 C 171.027,73.9063 170.027,74.573 168.5,74.5C 168.973,73.0937 169.973,72.427 171.5,72.5 Z"/></g>
<g><path style="opacity:0.286" fill="#65396b" d="M 417.5,71.5 C 419.19,71.8564 420.19,72.8564 420.5,74.5C 418.81,74.1436 417.81,73.1436 417.5,71.5 Z"/></g>
<g><path style="opacity:0.325" fill="#5e3464" d="M 168.5,74.5 C 168.027,75.9063 167.027,76.573 165.5,76.5C 165.973,75.0937 166.973,74.427 168.5,74.5 Z"/></g>
<g><path style="opacity:0.294" fill="#57315c" d="M 282.5,73.5 C 284.28,74.9899 284.946,76.9899 284.5,79.5C 283.542,77.6976 282.875,75.6976 282.5,73.5 Z"/></g>
<g><path style="opacity:0.635" fill="#683b6e" d="M 426.5,77.5 C 428.23,78.0256 429.564,79.0256 430.5,80.5C 428.368,80.4456 427.035,79.4456 426.5,77.5 Z"/></g>
<g><path style="opacity:0.675" fill="#663b6d" d="M 200.5,78.5 C 201.71,78.9321 202.71,79.5987 203.5,80.5C 201.821,80.7148 200.821,80.0481 200.5,78.5 Z"/></g>
<g><path style="opacity:0.996" fill="#dd7ff1" d="M 184.5,64.5 C 184.461,65.7562 184.961,66.7562 186,67.5C 189.926,66.5969 194.426,66.5969 199.5,67.5C 203.966,65.1033 208.466,65.1033 213,67.5C 213.333,66.8333 213.667,66.1667 214,65.5C 216.381,66.435 218.881,66.7683 221.5,66.5C 214.558,69.7297 207.558,73.063 200.5,76.5C 199.227,77.2565 199.227,77.9232 200.5,78.5C 200.821,80.0481 201.821,80.7148 203.5,80.5C 212.807,83.4727 220.473,88.8061 226.5,96.5C 226.738,98.4044 227.738,99.7377 229.5,100.5C 229.427,102.027 230.094,103.027 231.5,103.5C 235.956,109.655 234.623,114.488 227.5,118C 223.793,118.996 220.459,118.33 217.5,116C 215.024,112.855 212.69,109.688 210.5,106.5C 210.5,104.5 209.5,103.5 207.5,103.5C 191.016,91.683 174.35,91.5163 157.5,103C 152.354,108.152 148.354,113.986 145.5,120.5C 145.649,119.448 145.483,118.448 145,117.5C 141.866,118.235 138.533,118.235 135,117.5C 134.055,117.905 133.388,118.572 133,119.5C 131.301,118.594 129.467,118.261 127.5,118.5C 127.802,121.059 127.468,123.393 126.5,125.5C 127.954,109.096 135.287,95.9292 148.5,86C 154.194,82.8212 159.861,79.6546 165.5,76.5C 167.027,76.573 168.027,75.9063 168.5,74.5C 170.027,74.573 171.027,73.9063 171.5,72.5C 172.29,71.5987 173.29,70.9321 174.5,70.5C 176.027,70.573 177.027,69.9063 177.5,68.5C 179.698,66.9019 182.031,65.5686 184.5,64.5 Z"/></g>
<g><path style="opacity:0.995" fill="#de7ff3" d="M 407.5,65.5 C 410.833,67.5 414.167,69.5 417.5,71.5C 417.81,73.1436 418.81,74.1436 420.5,74.5C 422.784,74.9752 424.784,75.9752 426.5,77.5C 427.035,79.4456 428.368,80.4456 430.5,80.5C 430.833,80.5 431.167,80.5 431.5,80.5C 431.821,82.0481 432.821,82.7148 434.5,82.5C 440.348,85.015 445.348,88.6817 449.5,93.5C 449.738,95.4044 450.738,96.7377 452.5,97.5C 457.936,103.038 461.269,109.705 462.5,117.5C 458.495,116.961 454.495,117.628 450.5,119.5C 449.304,119.154 449.304,118.654 450.5,118C 448.82,117.966 447.32,117.799 446,117.5C 444.812,118.563 444.312,119.897 444.5,121.5C 442.036,115.91 439.036,110.577 435.5,105.5C 435.167,104.5 434.5,103.833 433.5,103.5C 421.091,94.2698 407.425,92.1032 392.5,97C 385.347,100.998 379.347,106.165 374.5,112.5C 373.5,112.833 372.833,113.5 372.5,114.5C 370.927,117.893 368.26,119.226 364.5,118.5C 363.486,117.326 362.153,116.66 360.5,116.5C 358.413,115.415 357.08,113.749 356.5,111.5C 356.833,109.5 357.167,107.5 357.5,105.5C 361.04,97.9566 366.374,91.9566 373.5,87.5C 375.027,87.573 376.027,86.9063 376.5,85.5C 376.842,84.6618 377.508,84.3284 378.5,84.5C 380.027,84.573 381.027,83.9063 381.5,82.5C 384.567,81.1291 387.567,79.4624 390.5,77.5C 387.634,75.5675 384.634,73.9009 381.5,72.5C 380.313,70.0246 378.313,69.0246 375.5,69.5C 373.847,69.3404 372.514,68.6737 371.5,67.5C 383.614,66.5569 395.448,66.5569 407,67.5C 407.464,66.9056 407.631,66.2389 407.5,65.5 Z"/></g>
<g><path style="opacity:0.651" fill="#62396a" d="M 431.5,80.5 C 432.71,80.9321 433.71,81.5987 434.5,82.5C 432.821,82.7148 431.821,82.0481 431.5,80.5 Z"/></g>
<g><path style="opacity:0.459" fill="#5f3767" d="M 381.5,82.5 C 381.027,83.9063 380.027,84.573 378.5,84.5C 378.973,83.0937 379.973,82.427 381.5,82.5 Z"/></g>
<g><path style="opacity:0.345" fill="#5b3563" d="M 376.5,85.5 C 376.027,86.9063 375.027,87.573 373.5,87.5C 373.973,86.0937 374.973,85.427 376.5,85.5 Z"/></g>
<g><path style="opacity:0.282" fill="#60386a" d="M 449.5,93.5 C 451.262,94.2623 452.262,95.5956 452.5,97.5C 450.738,96.7377 449.738,95.4044 449.5,93.5 Z"/></g>
<g><path style="opacity:0.482" fill="#573460" d="M 226.5,96.5 C 228.262,97.2623 229.262,98.5956 229.5,100.5C 227.738,99.7377 226.738,98.4044 226.5,96.5 Z"/></g>
<g><path style="opacity:0.078" fill="#4b2c54" d="M 229.5,100.5 C 230.906,100.973 231.573,101.973 231.5,103.5C 230.094,103.027 229.427,102.027 229.5,100.5 Z"/></g>
<g><path style="opacity:0.345" fill="#412847" d="M 207.5,103.5 C 209.5,103.5 210.5,104.5 210.5,106.5C 209.167,105.833 208.167,104.833 207.5,103.5 Z"/></g>
<g><path style="opacity:0.004" fill="#322036" d="M 433.5,103.5 C 434.5,103.833 435.167,104.5 435.5,105.5C 434.167,105.5 433.5,104.833 433.5,103.5 Z"/></g>
<g><path style="opacity:0.012" fill="#1f1622" d="M 357.5,105.5 C 357.167,107.5 356.833,109.5 356.5,111.5C 355.206,109.32 355.539,107.32 357.5,105.5 Z"/></g>
<g><path style="opacity:0.004" fill="#2c1d31" d="M 374.5,112.5 C 374.5,113.833 373.833,114.5 372.5,114.5C 372.833,113.5 373.5,112.833 374.5,112.5 Z"/></g>
<g><path style="opacity:0.992" fill="#dd88fe" d="M 285.5,85.5 C 286.166,89.6845 286.833,94.0178 287.5,98.5C 290.402,98.3913 292.902,99.0579 295,100.5C 295.308,99.6919 295.808,99.0253 296.5,98.5C 298.278,98.5693 300.111,98.9026 302,99.5C 302.278,98.5842 302.778,97.9175 303.5,97.5C 303.667,115.503 303.5,133.503 303,151.5C 301,150.833 299,150.167 297,149.5C 296.333,152.167 295.667,152.167 295,149.5C 294.309,151.891 293.309,151.891 292,149.5C 290.249,150.174 288.583,150.507 287,150.5C 286.831,137.327 286.331,124.327 285.5,111.5C 285.5,102.833 285.5,94.1667 285.5,85.5 Z"/></g>
<g><path style="opacity:0.067" fill="#402748" d="M 360.5,116.5 C 362.153,116.66 363.486,117.326 364.5,118.5C 362.62,118.771 361.287,118.104 360.5,116.5 Z"/></g>
<g><path style="opacity:0.999" fill="#d184f6" d="M 462.5,117.5 C 463.563,127.339 463.563,137.339 462.5,147.5C 462.577,148.75 463.244,149.583 464.5,150C 461.745,151.596 458.911,151.429 456,149.5C 455.667,150.167 455.333,150.833 455,151.5C 453,150.833 451,150.167 449,149.5C 447.691,151.891 446.691,151.891 446,149.5C 445.333,152.167 444.667,152.167 444,149.5C 443.333,150.167 442.667,150.833 442,151.5C 440.829,150.107 439.329,149.273 437.5,149C 439.464,147.549 440.797,145.716 441.5,143.5C 444.744,136.457 445.744,129.123 444.5,121.5C 444.312,119.897 444.812,118.563 446,117.5C 447.32,117.799 448.82,117.966 450.5,118C 449.304,118.654 449.304,119.154 450.5,119.5C 454.495,117.628 458.495,116.961 462.5,117.5 Z"/></g>
<g><path style="opacity:0.994" fill="#c983f2" d="M 145.5,120.5 C 144.039,128.075 144.873,135.408 148,142.5C 149.167,143.667 150.333,144.833 151.5,146C 158.079,146.649 164.412,148.149 170.5,150.5C 171.514,151.674 172.847,152.34 174.5,152.5C 182.488,154.832 189.488,158.832 195.5,164.5C 194.048,166.852 192.048,167.185 189.5,165.5C 187.902,167.973 186.402,167.973 185,165.5C 183.667,166.167 182.333,166.833 181,167.5C 180.333,166.167 179.667,166.167 179,167.5C 178.667,166.833 178.333,166.167 178,165.5C 173.148,165.949 167.981,166.282 162.5,166.5C 150.861,163.836 139.194,163.836 127.5,166.5C 124.881,166.768 122.381,166.435 120,165.5C 118.54,167.422 116.873,168.089 115,167.5C 111.046,165.124 107.046,165.124 103,167.5C 102.692,166.692 102.192,166.025 101.5,165.5C 100.167,166.833 98.8333,166.833 97.5,165.5C 96.5224,165.977 95.6891,166.643 95,167.5C 95.0579,165.565 95.8912,163.898 97.5,162.5C 98.9568,160.215 100.957,158.382 103.5,157C 110.948,153.275 118.615,150.108 126.5,147.5C 126.688,140.013 126.688,132.68 126.5,125.5C 127.468,123.393 127.802,121.059 127.5,118.5C 129.467,118.261 131.301,118.594 133,119.5C 133.388,118.572 134.055,117.905 135,117.5C 138.533,118.235 141.866,118.235 145,117.5C 145.483,118.448 145.649,119.448 145.5,120.5 Z"/></g>
<g><path style="opacity:0.994" fill="#c583f2" d="M 441.5,143.5 C 440.797,145.716 439.464,147.549 437.5,149C 439.329,149.273 440.829,150.107 442,151.5C 442.667,150.833 443.333,150.167 444,149.5C 444.667,152.167 445.333,152.167 446,149.5C 446.691,151.891 447.691,151.891 449,149.5C 451,150.167 453,150.833 455,151.5C 455.333,150.833 455.667,150.167 456,149.5C 458.911,151.429 461.745,151.596 464.5,150C 463.244,149.583 462.577,148.75 462.5,147.5C 475.093,150.295 486.093,155.962 495.5,164.5C 495.631,165.376 495.298,166.043 494.5,166.5C 493.232,165.572 491.899,165.405 490.5,166C 491.696,166.654 491.696,167.154 490.5,167.5C 487.196,167.677 483.862,167.011 480.5,165.5C 479.459,167.991 478.626,167.991 478,165.5C 476.089,165.745 474.089,165.745 472,165.5C 470.698,166.085 469.531,166.751 468.5,167.5C 467.5,167.5 466.5,167.5 465.5,167.5C 464.041,167.567 462.708,167.234 461.5,166.5C 459.898,164.926 457.898,164.259 455.5,164.5C 444.174,163.56 433.174,164.893 422.5,168.5C 420.62,168.229 419.287,168.896 418.5,170.5C 414.656,172.922 410.99,175.589 407.5,178.5C 406.167,178.5 405.5,179.167 405.5,180.5C 404.833,180.5 404.5,180.833 404.5,181.5C 402.973,181.427 401.973,182.094 401.5,183.5C 401.262,185.404 400.262,186.738 398.5,187.5C 398.053,184.476 397.22,184.143 396,186.5C 393.888,184.078 391.888,184.078 390,186.5C 389,185.833 388,185.167 387,184.5C 384.907,185.246 382.907,185.579 381,185.5C 380.722,184.584 380.222,183.918 379.5,183.5C 380.169,180.151 381.836,177.484 384.5,175.5C 386.262,174.738 387.262,173.404 387.5,171.5C 390.543,167.456 394.209,164.123 398.5,161.5C 400.027,161.573 401.027,160.906 401.5,159.5C 403.336,157.412 405.669,156.079 408.5,155.5C 410.027,155.573 411.027,154.906 411.5,153.5C 420.003,149.503 429.003,147.003 438.5,146C 439.373,144.955 440.373,144.122 441.5,143.5 Z"/></g>
<g><path style="opacity:0.106" fill="#4f335f" d="M 170.5,150.5 C 172.38,150.229 173.713,150.896 174.5,152.5C 172.847,152.34 171.514,151.674 170.5,150.5 Z"/></g>
<g><path style="opacity:0.345" fill="#523564" d="M 411.5,153.5 C 411.027,154.906 410.027,155.573 408.5,155.5C 408.973,154.094 409.973,153.427 411.5,153.5 Z"/></g>
<g><path style="opacity:0.329" fill="#513662" d="M 401.5,159.5 C 401.027,160.906 400.027,161.573 398.5,161.5C 398.973,160.094 399.973,159.427 401.5,159.5 Z"/></g>
<g><path style="opacity:0.169" fill="#3e2b4b" d="M 455.5,164.5 C 457.898,164.259 459.898,164.926 461.5,166.5C 459.214,166.405 457.214,165.738 455.5,164.5 Z"/></g>
<g><path style="opacity:0.994" fill="#ba81ec" d="M 97.5,162.5 C 95.8912,163.898 95.0579,165.565 95,167.5C 95.6891,166.643 96.5224,165.977 97.5,165.5C 98.8333,166.833 100.167,166.833 101.5,165.5C 102.192,166.025 102.692,166.692 103,167.5C 107.046,165.124 111.046,165.124 115,167.5C 116.873,168.089 118.54,167.422 120,165.5C 122.381,166.435 124.881,166.768 127.5,166.5C 108.842,173.158 96.1753,185.825 89.5,204.5C 89.6495,203.448 89.4828,202.448 89,201.5C 87.984,202.634 87.3173,202.301 87,200.5C 86.6667,201.167 86.3333,201.833 86,202.5C 83.7204,202.58 81.3871,201.913 79,200.5C 76.7422,201.493 74.2422,201.826 71.5,201.5C 72.105,195.3 74.105,189.634 77.5,184.5C 78.9063,184.027 79.573,183.027 79.5,181.5C 83.8401,173.496 89.8401,167.163 97.5,162.5 Z"/></g>
<g><path style="opacity:0.996" fill="#ba84ef" d="M 195.5,164.5 C 206.637,173.773 213.97,185.44 217.5,199.5C 218.212,206.143 218.546,212.809 218.5,219.5C 217.976,222.188 216.309,223.688 213.5,224C 209.958,224.851 206.625,224.351 203.5,222.5C 201.072,215.396 199.239,208.063 198,200.5C 190.531,184.53 178.698,173.196 162.5,166.5C 167.981,166.282 173.148,165.949 178,165.5C 178.333,166.167 178.667,166.833 179,167.5C 179.667,166.167 180.333,166.167 181,167.5C 182.333,166.833 183.667,166.167 185,165.5C 186.402,167.973 187.902,167.973 189.5,165.5C 192.048,167.185 194.048,166.852 195.5,164.5 Z"/></g>
<g><path style="opacity:0.994" fill="#bc81ec" d="M 304.5,94.5 C 304.333,114.169 304.5,133.836 305,153.5C 309.203,151.153 313.703,149.487 318.5,148.5C 321.495,148.706 324.162,148.04 326.5,146.5C 330.637,146.146 334.637,146.646 338.5,148C 342.963,153.76 342.296,158.76 336.5,163C 316.546,164.455 305.88,174.955 304.5,194.5C 303.612,196.033 303.112,198.366 303,201.5C 290.703,200.758 279.203,200.758 268.5,201.5C 262.297,200.408 256.297,198.574 250.5,196C 247.439,190.995 247.939,186.495 252,182.5C 257.498,181.25 262.998,181.25 268.5,182.5C 270.102,184.074 272.102,184.741 274.5,184.5C 275.791,184.263 276.791,184.596 277.5,185.5C 278.514,186.674 279.847,187.34 281.5,187.5C 282.496,187.414 283.329,187.748 284,188.5C 284.333,187.833 284.667,187.167 285,186.5C 285.5,161.502 285.667,136.502 285.5,111.5C 286.331,124.327 286.831,137.327 287,150.5C 288.583,150.507 290.249,150.174 292,149.5C 293.309,151.891 294.309,151.891 295,149.5C 295.667,152.167 296.333,152.167 297,149.5C 299,150.167 301,150.833 303,151.5C 303.5,133.503 303.667,115.503 303.5,97.5C 303.263,96.209 303.596,95.209 304.5,94.5 Z"/></g>
<g><path style="opacity:0.349" fill="#4c325b" d="M 326.5,146.5 C 324.162,148.04 321.495,148.706 318.5,148.5C 320.905,147.232 323.572,146.565 326.5,146.5 Z"/></g>
<g><path style="opacity:0.994" fill="#bf87f5" d="M 495.5,164.5 C 497.389,165.604 499.055,166.937 500.5,168.5C 500.427,170.027 501.094,171.027 502.5,171.5C 503.833,172.167 504.833,173.167 505.5,174.5C 505.738,176.404 506.738,177.738 508.5,178.5C 514.479,186.081 518.146,194.747 519.5,204.5C 519.879,209.297 519.379,213.964 518,218.5C 515.876,217.773 513.709,217.106 511.5,216.5C 510.459,218.991 509.626,218.991 509,216.5C 506.846,217.23 504.679,217.897 502.5,218.5C 502.749,214.542 502.082,210.876 500.5,207.5C 499.85,205.565 499.517,203.565 499.5,201.5C 499.771,199.62 499.104,198.287 497.5,197.5C 495.571,192.712 492.904,188.379 489.5,184.5C 489.5,182.5 488.5,181.5 486.5,181.5C 486.167,179.167 484.833,177.833 482.5,177.5C 478.334,174.583 474.001,171.916 469.5,169.5C 469.167,168.833 468.833,168.167 468.5,167.5C 469.531,166.751 470.698,166.085 472,165.5C 474.089,165.745 476.089,165.745 478,165.5C 478.626,167.991 479.459,167.991 480.5,165.5C 483.862,167.011 487.196,167.677 490.5,167.5C 491.696,167.154 491.696,166.654 490.5,166C 491.899,165.405 493.232,165.572 494.5,166.5C 495.298,166.043 495.631,165.376 495.5,164.5 Z"/></g>
<g><path style="opacity:0.027" fill="#271b30" d="M 465.5,167.5 C 466.5,167.5 467.5,167.5 468.5,167.5C 468.833,168.167 469.167,168.833 469.5,169.5C 467.847,169.34 466.514,168.674 465.5,167.5 Z"/></g>
<g><path style="opacity:0.012" fill="#31223b" d="M 422.5,168.5 C 421.486,169.674 420.153,170.34 418.5,170.5C 419.287,168.896 420.62,168.229 422.5,168.5 Z"/></g>
<g><path style="opacity:0.153" fill="#432f52" d="M 500.5,168.5 C 501.906,168.973 502.573,169.973 502.5,171.5C 501.094,171.027 500.427,170.027 500.5,168.5 Z"/></g>
<g><path style="opacity:0.255" fill="#4f3562" d="M 387.5,171.5 C 387.262,173.404 386.262,174.738 384.5,175.5C 384.738,173.596 385.738,172.262 387.5,171.5 Z"/></g>
<g><path style="opacity:0.416" fill="#463157" d="M 505.5,174.5 C 507.262,175.262 508.262,176.596 508.5,178.5C 506.738,177.738 505.738,176.404 505.5,174.5 Z"/></g>
<g><path style="opacity:0.478" fill="#483359" d="M 482.5,177.5 C 484.833,177.833 486.167,179.167 486.5,181.5C 484.833,180.5 483.5,179.167 482.5,177.5 Z"/></g>
<g><path style="opacity:0.012" fill="#1d1623" d="M 407.5,178.5 C 407.167,179.5 406.5,180.167 405.5,180.5C 405.5,179.167 406.167,178.5 407.5,178.5 Z"/></g>
<g><path style="opacity:0.388" fill="#3f2e4f" d="M 486.5,181.5 C 488.5,181.5 489.5,182.5 489.5,184.5C 488.167,183.833 487.167,182.833 486.5,181.5 Z"/></g>
<g><path style="opacity:0.008" fill="#281e31" d="M 404.5,181.5 C 404.027,182.906 403.027,183.573 401.5,183.5C 401.973,182.094 402.973,181.427 404.5,181.5 Z"/></g>
<g><path style="opacity:0.173" fill="#4a345e" d="M 79.5,181.5 C 79.573,183.027 78.9063,184.027 77.5,184.5C 77.427,182.973 78.0937,181.973 79.5,181.5 Z"/></g>
<g><path style="opacity:0.322" fill="#49345c" d="M 268.5,182.5 C 270.786,182.595 272.786,183.262 274.5,184.5C 272.102,184.741 270.102,184.074 268.5,182.5 Z"/></g>
<g><path style="opacity:0.063" fill="#332540" d="M 277.5,185.5 C 279.38,185.229 280.713,185.896 281.5,187.5C 279.847,187.34 278.514,186.674 277.5,185.5 Z"/></g>
<g><path style="opacity:0.137" fill="#433256" d="M 497.5,197.5 C 499.104,198.287 499.771,199.62 499.5,201.5C 498.326,200.486 497.66,199.153 497.5,197.5 Z"/></g>
<g><path style="opacity:0.994" fill="#b786f3" d="M 379.5,183.5 C 380.222,183.918 380.722,184.584 381,185.5C 382.907,185.579 384.907,185.246 387,184.5C 388,185.167 389,185.833 390,186.5C 391.888,184.078 393.888,184.078 396,186.5C 397.22,184.143 398.053,184.476 398.5,187.5C 395.602,192.175 393.268,197.175 391.5,202.5C 390.883,202.611 390.383,202.944 390,203.5C 389.505,205.473 389.338,207.473 389.5,209.5C 390.075,223.442 384.242,227.442 372,221.5C 370.633,217.3 370.133,212.967 370.5,208.5C 372.118,205.829 372.785,202.829 372.5,199.5C 373.311,193.368 375.644,188.035 379.5,183.5 Z"/></g>
<g><path style="opacity:0.38" fill="#4e3867" d="M 460.5,199.5 C 459.833,200.833 458.833,201.833 457.5,202.5C 457.5,200.5 458.5,199.5 460.5,199.5 Z"/></g>
<g><path style="opacity:0.38" fill="#493760" d="M 391.5,202.5 C 391.073,205.01 390.407,207.343 389.5,209.5C 389.338,207.473 389.505,205.473 390,203.5C 390.383,202.944 390.883,202.611 391.5,202.5 Z"/></g>
<g><path style="opacity:0.154" fill="#3d2d51" d="M 372.5,199.5 C 372.785,202.829 372.118,205.829 370.5,208.5C 370.676,205.273 371.343,202.273 372.5,199.5 Z"/></g>
<g><path style="opacity:0.503" fill="#6c5292" d="M 217.5,199.5 C 218.94,203.406 219.606,207.573 219.5,212C 219.497,214.69 219.164,217.19 218.5,219.5C 218.546,212.809 218.212,206.143 217.5,199.5 Z"/></g>
<g><path style="opacity:0.206" fill="#4f3c6b" d="M 472.5,205.5 C 473.798,211.233 473.465,216.9 471.5,222.5C 472.032,216.848 472.365,211.181 472.5,205.5 Z"/></g>
<g><path style="opacity:0.58" fill="#564174" d="M 500.5,207.5 C 502.082,210.876 502.749,214.542 502.5,218.5C 501.952,220.626 501.285,222.626 500.5,224.5C 501.725,218.826 501.725,213.159 500.5,207.5 Z"/></g>
<g><path style="opacity:0.292" fill="#5a457c" d="M 136.5,212.5 C 136.527,219.186 136.861,225.852 137.5,232.5C 135.457,225.898 135.123,219.231 136.5,212.5 Z"/></g>
<g><path style="opacity:0.993" fill="#b087f1" d="M 89.5,204.5 C 87.9822,214.321 88.6489,223.988 91.5,233.5C 91.6567,234.873 91.49,236.207 91,237.5C 89.984,236.366 89.3173,236.699 89,238.5C 86.2236,237.352 83.557,237.686 81,239.5C 80.8333,239.167 80.6667,238.833 80.5,238.5C 81.376,237.749 82.376,237.249 83.5,237C 81.9391,236.682 80.7724,235.849 80,234.5C 79.1376,236.087 78.4709,237.754 78,239.5C 77.3741,237.009 76.5407,237.009 75.5,239.5C 74.1451,238.812 73.1451,237.812 72.5,236.5C 69.0416,224.796 68.7083,213.129 71.5,201.5C 74.2422,201.826 76.7422,201.493 79,200.5C 81.3871,201.913 83.7204,202.58 86,202.5C 86.3333,201.833 86.6667,201.167 87,200.5C 87.3173,202.301 87.984,202.634 89,201.5C 89.4828,202.448 89.6495,203.448 89.5,204.5 Z"/></g>
<g><path style="opacity:0.992" fill="#b58bf9" d="M 153.5,216.5 C 153.336,219.187 153.503,221.854 154,224.5C 154.278,225.416 154.778,226.082 155.5,226.5C 155.5,226.833 155.5,227.167 155.5,227.5C 157.089,230.964 156.589,233.964 154,236.5C 153.586,236.043 153.086,235.709 152.5,235.5C 151.552,238.715 150.219,239.048 148.5,236.5C 147.808,237.025 147.308,237.692 147,238.5C 145.796,237.529 145.296,236.529 145.5,235.5C 144.808,236.025 144.308,236.692 144,237.5C 143.51,236.207 143.343,234.873 143.5,233.5C 141.379,233.675 139.379,233.341 137.5,232.5C 136.861,225.852 136.527,219.186 136.5,212.5C 137.031,210.376 138.365,208.876 140.5,208C 148.289,205.88 152.623,208.713 153.5,216.5 Z"/></g>
<g><path style="opacity:0.998" fill="#b78bfa" d="M 304.5,194.5 C 304.5,206.5 304.5,218.5 304.5,230.5C 303.691,232.292 303.191,234.292 303,236.5C 301.691,238.891 300.691,238.891 300,236.5C 298.309,239.131 297.142,238.797 296.5,235.5C 293.5,234.167 290.5,234.167 287.5,235.5C 286.833,231.018 286.166,226.684 285.5,222.5C 283.177,212.839 277.51,205.839 268.5,201.5C 279.203,200.758 290.703,200.758 303,201.5C 303.112,198.366 303.612,196.033 304.5,194.5 Z"/></g>
<g><path style="opacity:0.994" fill="#ae85ef" d="M 472.5,205.5 C 472.365,211.181 472.032,216.848 471.5,222.5C 470.744,226.767 469.411,230.767 467.5,234.5C 466.542,234.047 465.708,233.381 465,232.5C 463.075,236.169 461.408,236.169 460,232.5C 458.645,235.732 456.978,236.398 455,234.5C 454.385,236.116 453.385,237.449 452,238.5C 451.667,237.833 451.333,237.167 451,236.5C 450.282,237.451 449.449,237.617 448.5,237C 449.696,236.346 449.696,235.846 448.5,235.5C 446.995,238.131 446.329,237.797 446.5,234.5C 451.229,224.724 454.396,214.391 456,203.5C 456.383,202.944 456.883,202.611 457.5,202.5C 458.833,201.833 459.833,200.833 460.5,199.5C 466.612,197.222 470.612,199.222 472.5,205.5 Z"/></g>
<g><path style="opacity:0.59" fill="#6a5191" d="M 153.5,216.5 C 154.434,219.656 155.101,222.989 155.5,226.5C 154.778,226.082 154.278,225.416 154,224.5C 153.503,221.854 153.336,219.187 153.5,216.5 Z"/></g>
<g><path style="opacity:0.996" fill="#a886ef" d="M 519.5,204.5 C 521.163,215.04 520.497,225.54 517.5,236C 521.767,240.426 525.433,245.259 528.5,250.5C 528.5,251.167 528.5,251.833 528.5,252.5C 527.504,252.586 526.671,252.252 526,251.5C 521.545,252.51 517.212,253.177 513,253.5C 512.667,252.833 512.333,252.167 512,251.5C 511,252.833 510,252.833 509,251.5C 508.283,252.044 507.783,252.711 507.5,253.5C 503.854,250.346 500.687,246.68 498,242.5C 497.333,239.5 497.333,236.5 498,233.5C 499.145,230.568 499.978,227.568 500.5,224.5C 501.285,222.626 501.952,220.626 502.5,218.5C 504.679,217.897 506.846,217.23 509,216.5C 509.626,218.991 510.459,218.991 511.5,216.5C 513.709,217.106 515.876,217.773 518,218.5C 519.379,213.964 519.879,209.297 519.5,204.5 Z"/></g>
<g><path style="opacity:0.098" fill="#40355c" d="M 140.5,242.5 C 141.906,242.973 142.573,243.973 142.5,245.5C 141.094,245.027 140.427,244.027 140.5,242.5 Z"/></g>
<g><path style="opacity:0.993" fill="#a186ec" d="M 91.5,233.5 C 92.8671,237.105 92.7004,240.771 91,244.5C 81.9013,253.073 75.068,263.073 70.5,274.5C 72.3463,266.866 69.8463,265.199 63,269.5C 61,268.167 59,268.167 57,269.5C 55.1263,267.14 53.6263,267.473 52.5,270.5C 53.2702,266.297 54.6035,262.297 56.5,258.5C 57.9063,258.027 58.573,257.027 58.5,255.5C 61.9489,248.269 66.6155,241.935 72.5,236.5C 73.1451,237.812 74.1451,238.812 75.5,239.5C 76.5407,237.009 77.3741,237.009 78,239.5C 78.4709,237.754 79.1376,236.087 80,234.5C 80.7724,235.849 81.9391,236.682 83.5,237C 82.376,237.249 81.376,237.749 80.5,238.5C 80.6667,238.833 80.8333,239.167 81,239.5C 83.557,237.686 86.2236,237.352 89,238.5C 89.3173,236.699 89.984,236.366 91,237.5C 91.49,236.207 91.6567,234.873 91.5,233.5 Z"/></g>
<g><path style="opacity:0.997" fill="#ad8ffd" d="M 285.5,222.5 C 286.166,226.684 286.833,231.018 287.5,235.5C 290.5,234.167 293.5,234.167 296.5,235.5C 297.142,238.797 298.309,239.131 300,236.5C 300.691,238.891 301.691,238.891 303,236.5C 303.191,234.292 303.691,232.292 304.5,230.5C 304.5,242.5 304.5,254.5 304.5,266.5C 303.842,267.398 303.176,268.398 302.5,269.5C 300.439,269.457 298.272,268.791 296,267.5C 295.667,268.167 295.333,268.833 295,269.5C 292.29,269.026 289.457,269.026 286.5,269.5C 286.825,261.648 286.492,253.982 285.5,246.5C 285.5,238.5 285.5,230.5 285.5,222.5 Z"/></g>
<g><path style="opacity:0.995" fill="#a288f0" d="M 467.5,234.5 C 459.681,251.152 447.348,263.318 430.5,271C 424.303,273.465 417.969,275.465 411.5,277C 410.663,278.011 410.33,279.178 410.5,280.5C 410.657,281.873 410.49,283.207 410,284.5C 408.372,283.903 406.705,284.237 405,285.5C 401.791,283.688 398.791,283.688 396,285.5C 395.014,284.829 393.847,284.829 392.5,285.5C 390.722,283.171 389.722,280.504 389.5,277.5C 372.948,275.153 358.282,268.653 345.5,258C 339.775,251.849 340.441,246.516 347.5,242C 349.833,241.333 352.167,241.333 354.5,242C 364.313,249.405 374.98,254.905 386.5,258.5C 389.186,259.991 392.186,260.657 395.5,260.5C 397.696,260.495 399.696,260.162 401.5,259.5C 403.167,259.5 404.833,259.5 406.5,259.5C 409.522,259.196 412.522,258.696 415.5,258C 416.056,257.617 416.389,257.117 416.5,256.5C 417.167,256.5 417.833,256.5 418.5,256.5C 420.967,256.245 422.967,255.245 424.5,253.5C 433.064,248.603 440.397,242.27 446.5,234.5C 446.329,237.797 446.995,238.131 448.5,235.5C 449.696,235.846 449.696,236.346 448.5,237C 449.449,237.617 450.282,237.451 451,236.5C 451.333,237.167 451.667,237.833 452,238.5C 453.385,237.449 454.385,236.116 455,234.5C 456.978,236.398 458.645,235.732 460,232.5C 461.408,236.169 463.075,236.169 465,232.5C 465.708,233.381 466.542,234.047 467.5,234.5 Z"/></g>
<g><path style="opacity:0.996" fill="#54467a" d="M 254.5,251.5 C 257.627,250.185 260.627,250.518 263.5,252.5C 262.178,252.33 261.011,252.663 260,253.5C 258.599,251.808 256.766,251.141 254.5,251.5 Z"/></g>
<g><path style="opacity:0.106" fill="#352e4f" d="M 528.5,250.5 C 529.906,250.973 530.573,251.973 530.5,253.5C 529.833,253.167 529.167,252.833 528.5,252.5C 528.5,251.833 528.5,251.167 528.5,250.5 Z"/></g>
<g><path style="opacity:0.612" fill="#4f4375" d="M 424.5,253.5 C 422.967,255.245 420.967,256.245 418.5,256.5C 420.033,254.755 422.033,253.755 424.5,253.5 Z"/></g>
<g><path style="opacity:0.055" fill="#2a243e" d="M 58.5,255.5 C 58.573,257.027 57.9063,258.027 56.5,258.5C 56.427,256.973 57.0937,255.973 58.5,255.5 Z"/></g>
<g><path style="opacity:0.21" fill="#4a3e6d" d="M 416.5,256.5 C 416.389,257.117 416.056,257.617 415.5,258C 412.522,258.696 409.522,259.196 406.5,259.5C 409.583,258.007 412.917,257.007 416.5,256.5 Z"/></g>
<g><path style="opacity:0.659" fill="#7261aa" d="M 386.5,258.5 C 391.463,259.254 396.463,259.587 401.5,259.5C 399.696,260.162 397.696,260.495 395.5,260.5C 392.186,260.657 389.186,259.991 386.5,258.5 Z"/></g>
<g><path style="opacity:0.994" fill="#9f89f0" d="M 155.5,227.5 C 164.496,253.102 182.662,266.435 210,267.5C 226.021,268.05 239.854,262.884 251.5,252C 252.448,251.517 253.448,251.351 254.5,251.5C 256.766,251.141 258.599,251.808 260,253.5C 261.011,252.663 262.178,252.33 263.5,252.5C 266.908,255.975 267.408,259.975 265,264.5C 252.95,275.584 238.783,282.584 222.5,285.5C 219.83,284.834 217.33,284.834 215,285.5C 214.667,284.833 214.333,284.167 214,283.5C 213.261,284.574 212.261,285.241 211,285.5C 207.103,285.124 203.27,285.124 199.5,285.5C 198.833,285.5 198.167,285.5 197.5,285.5C 189.49,283.654 181.824,280.987 174.5,277.5C 174.027,276.094 173.027,275.427 171.5,275.5C 162.74,271.258 155.24,265.258 149,257.5C 146.173,253.845 144.007,249.845 142.5,245.5C 142.573,243.973 141.906,242.973 140.5,242.5C 138.924,239.345 137.924,236.012 137.5,232.5C 139.379,233.341 141.379,233.675 143.5,233.5C 143.343,234.873 143.51,236.207 144,237.5C 144.308,236.692 144.808,236.025 145.5,235.5C 145.296,236.529 145.796,237.529 147,238.5C 147.308,237.692 147.808,237.025 148.5,236.5C 150.219,239.048 151.552,238.715 152.5,235.5C 153.086,235.709 153.586,236.043 154,236.5C 156.589,233.964 157.089,230.964 155.5,227.5 Z"/></g>
<g><path style="opacity:0.991" fill="#a08df6" d="M 528.5,252.5 C 529.167,252.833 529.833,253.167 530.5,253.5C 534.336,259.533 536.836,266.2 538,273.5C 538.777,282.548 538.611,291.548 537.5,300.5C 532.782,301.645 528.115,301.645 523.5,300.5C 521.971,300.529 520.804,301.196 520,302.5C 518.961,301.756 518.461,300.756 518.5,299.5C 518.833,298.167 519.167,296.833 519.5,295.5C 520.991,292.814 521.657,289.814 521.5,286.5C 521.657,283.186 520.991,280.186 519.5,277.5C 517.079,268.659 513.079,260.659 507.5,253.5C 507.783,252.711 508.283,252.044 509,251.5C 510,252.833 511,252.833 512,251.5C 512.333,252.167 512.667,252.833 513,253.5C 517.212,253.177 521.545,252.51 526,251.5C 526.671,252.252 527.504,252.586 528.5,252.5 Z"/></g>
<g><path style="opacity:0.141" fill="#2f2946" d="M 171.5,275.5 C 173.027,275.427 174.027,276.094 174.5,277.5C 172.973,277.573 171.973,276.906 171.5,275.5 Z"/></g>
<g><path style="opacity:0.988" fill="#9d8ef8" d="M 70.5,274.5 C 69.2216,282.171 69.2216,289.837 70.5,297.5C 70.5,298.5 70.5,299.5 70.5,300.5C 68.6096,300.297 67.1096,300.963 66,302.5C 65.2613,301.426 64.2613,300.759 63,300.5C 60.758,300.609 58.5913,300.942 56.5,301.5C 55.1401,300.82 53.8068,300.153 52.5,299.5C 51.2327,289.974 51.2327,280.308 52.5,270.5C 53.6263,267.473 55.1263,267.14 57,269.5C 59,268.167 61,268.167 63,269.5C 69.8463,265.199 72.3463,266.866 70.5,274.5 Z"/></g>
<g><path style="opacity:0.505" fill="#5f5695" d="M 519.5,277.5 C 520.991,280.186 521.657,283.186 521.5,286.5C 521.657,289.814 520.991,292.814 519.5,295.5C 520.833,289.5 520.833,283.5 519.5,277.5 Z"/></g>
<g><path style="opacity:0.993" fill="#a192fe" d="M 304.5,266.5 C 304.5,276.833 304.5,287.167 304.5,297.5C 303.937,299.32 302.771,300.653 301,301.5C 299.072,301.601 297.072,301.267 295,300.5C 293.289,300.439 291.956,301.106 291,302.5C 289.89,300.963 288.39,300.297 286.5,300.5C 286.5,290.167 286.5,279.833 286.5,269.5C 289.457,269.026 292.29,269.026 295,269.5C 295.333,268.833 295.667,268.167 296,267.5C 298.272,268.791 300.439,269.457 302.5,269.5C 303.176,268.398 303.842,267.398 304.5,266.5 Z"/></g>
<g><path style="opacity:0.102" fill="#302b4c" d="M 197.5,285.5 C 198.167,285.5 198.833,285.5 199.5,285.5C 199.737,286.791 199.404,287.791 198.5,288.5C 198.443,287.391 198.11,286.391 197.5,285.5 Z"/></g>
<g><path style="opacity:0.004" fill="#1e1b2c" d="M 396.5,294.5 C 397.906,294.973 398.573,295.973 398.5,297.5C 397.094,297.027 396.427,296.027 396.5,294.5 Z"/></g>
<g><path style="opacity:0.039" fill="#27253e" d="M 70.5,297.5 C 71.9313,298.78 72.5979,300.447 72.5,302.5C 71.8333,301.833 71.1667,301.167 70.5,300.5C 70.5,299.5 70.5,298.5 70.5,297.5 Z"/></g>
<g><path style="opacity:0.992" fill="#8f8aed" d="M 222.5,285.5 C 221.602,286.158 220.602,286.824 219.5,287.5C 210.152,316.007 190.485,330.007 160.5,329.5C 160.027,328.094 159.027,327.427 157.5,327.5C 153.672,324.595 153.005,321.261 155.5,317.5C 156.906,317.027 157.573,316.027 157.5,314.5C 162.194,312.489 167.194,311.322 172.5,311C 184.417,307.249 193.084,299.749 198.5,288.5C 199.404,287.791 199.737,286.791 199.5,285.5C 203.27,285.124 207.103,285.124 211,285.5C 212.261,285.241 213.261,284.574 214,283.5C 214.333,284.167 214.667,284.833 215,285.5C 217.33,284.834 219.83,284.834 222.5,285.5 Z"/></g>
<g><path style="opacity:0.991" fill="#908aee" d="M 410.5,280.5 C 415.111,290.603 422.778,297.437 433.5,301C 440.001,302.137 446.335,303.803 452.5,306C 457.21,315.194 454.21,320.361 443.5,321.5C 424.65,320.252 409.65,312.252 398.5,297.5C 398.573,295.973 397.906,294.973 396.5,294.5C 394.399,291.873 393.066,288.873 392.5,285.5C 393.847,284.829 395.014,284.829 396,285.5C 398.791,283.688 401.791,283.688 405,285.5C 406.705,284.237 408.372,283.903 410,284.5C 410.49,283.207 410.657,281.873 410.5,280.5 Z"/></g>
<g><path style="opacity:0.137" fill="#302e4e" d="M 515.5,307.5 C 515.573,309.027 514.906,310.027 513.5,310.5C 513.427,308.973 514.094,307.973 515.5,307.5 Z"/></g>
<g><path style="opacity:0.204" fill="#413f6b" d="M 535.5,307.5 C 535.065,310.157 534.065,312.491 532.5,314.5C 532.552,311.654 533.552,309.32 535.5,307.5 Z"/></g>
<g><path style="opacity:0.247" fill="#37355b" d="M 157.5,314.5 C 157.573,316.027 156.906,317.027 155.5,317.5C 155.427,315.973 156.094,314.973 157.5,314.5 Z"/></g>
<g><path style="opacity:0.997" fill="#8d8df2" d="M 518.5,299.5 C 518.461,300.756 518.961,301.756 520,302.5C 520.804,301.196 521.971,300.529 523.5,300.5C 528.115,301.645 532.782,301.645 537.5,300.5C 537.279,303.067 536.612,305.401 535.5,307.5C 533.552,309.32 532.552,311.654 532.5,314.5C 531.1,318.3 529.433,321.966 527.5,325.5C 529.1,328.368 530.433,331.368 531.5,334.5C 531.631,335.376 531.298,336.043 530.5,336.5C 524.506,335.846 518.673,335.846 513,336.5C 510.515,334.244 508.182,334.244 506,336.5C 500.022,335.958 494.189,335.958 488.5,336.5C 487.478,336.145 486.811,335.478 486.5,334.5C 488.566,332.801 490.9,331.468 493.5,330.5C 495.027,330.573 496.027,329.906 496.5,328.5C 502.843,323.157 508.509,317.157 513.5,310.5C 514.906,310.027 515.573,309.027 515.5,307.5C 516.129,304.603 517.129,301.936 518.5,299.5 Z"/></g>
<g><path style="opacity:0.137" fill="#303152" d="M 157.5,327.5 C 159.027,327.427 160.027,328.094 160.5,329.5C 158.973,329.573 157.973,328.906 157.5,327.5 Z"/></g>
<g><path style="opacity:0.314" fill="#2c2d49" d="M 496.5,328.5 C 496.027,329.906 495.027,330.573 493.5,330.5C 493.973,329.094 494.973,328.427 496.5,328.5 Z"/></g>
<g><path style="opacity:0.114" fill="#36375d" d="M 100.5,332.5 C 102.027,332.427 103.027,333.094 103.5,334.5C 101.973,334.573 100.973,333.906 100.5,332.5 Z"/></g>
<g><path style="opacity:0.145" fill="#2d2d4c" d="M 353.5,332.5 C 355.553,332.402 357.22,333.069 358.5,334.5C 356.447,334.598 354.78,333.931 353.5,332.5 Z"/></g>
<g><path style="opacity:0.995" fill="#838ff2" d="M 486.5,334.5 C 486.811,335.478 487.478,336.145 488.5,336.5C 494.189,335.958 500.022,335.958 506,336.5C 508.182,334.244 510.515,334.244 513,336.5C 518.673,335.846 524.506,335.846 530.5,336.5C 531.298,336.043 531.631,335.376 531.5,334.5C 533.592,337.088 534.925,340.088 535.5,343.5C 535.171,346.228 535.837,348.562 537.5,350.5C 538.613,359.786 538.78,369.119 538,378.5C 537.454,381.379 536.621,384.046 535.5,386.5C 529.361,387.444 523.361,387.444 517.5,386.5C 517.193,385.113 517.193,383.446 517.5,381.5C 517.5,381.167 517.5,380.833 517.5,380.5C 518.931,379.22 519.598,377.553 519.5,375.5C 521.447,363.293 519.447,351.793 513.5,341C 507.677,343.912 501.677,346.912 495.5,350C 491.284,351.684 486.951,352.851 482.5,353.5C 479.219,353.42 476.219,354.087 473.5,355.5C 468.456,355.827 463.456,355.494 458.5,354.5C 453.759,350.303 453.425,345.803 457.5,341C 458.745,340.209 460.078,339.709 461.5,339.5C 465.79,339.802 469.79,339.136 473.5,337.5C 477.793,336.344 482.126,335.344 486.5,334.5 Z"/></g>
<g><path style="opacity:0.994" fill="#888ff3" d="M 52.5,299.5 C 53.8068,300.153 55.1401,300.82 56.5,301.5C 58.5913,300.942 60.758,300.609 63,300.5C 64.2613,300.759 65.2613,301.426 66,302.5C 67.1096,300.963 68.6096,300.297 70.5,300.5C 71.1667,301.167 71.8333,301.833 72.5,302.5C 78.6727,315.343 88.006,325.343 100.5,332.5C 100.973,333.906 101.973,334.573 103.5,334.5C 107.584,335.188 111.584,336.188 115.5,337.5C 119.567,339.054 123.9,339.72 128.5,339.5C 135.446,341.732 137.112,346.066 133.5,352.5C 132.5,352.833 131.833,353.5 131.5,354.5C 126.544,355.494 121.544,355.827 116.5,355.5C 113.456,353.989 110.122,353.322 106.5,353.5C 95.8576,351.288 86.191,346.955 77.5,340.5C 76.265,341.34 75.265,342.34 74.5,343.5C 72.3455,345.617 71.3455,348.284 71.5,351.5C 71.0372,354.33 70.3705,356.997 69.5,359.5C 68.6829,361.969 68.1829,364.635 68,367.5C 66.6841,370.028 65.5174,370.028 64.5,367.5C 62.428,369.433 60.0947,369.433 57.5,367.5C 56.1667,367.833 54.8333,368.167 53.5,368.5C 52.8281,367.051 52.1614,365.718 51.5,364.5C 50.99,355.053 52.6567,346.053 56.5,337.5C 57.9063,337.027 58.573,336.027 58.5,334.5C 59.5467,331.404 60.88,328.404 62.5,325.5C 57.3894,317.499 54.056,308.832 52.5,299.5 Z"/></g>
<g><path style="opacity:0.993" fill="#818dee" d="M 353.5,332.5 C 354.78,333.931 356.447,334.598 358.5,334.5C 359.959,334.433 361.292,334.766 362.5,335.5C 362.973,336.906 363.973,337.573 365.5,337.5C 373.667,340.417 380.667,345.083 386.5,351.5C 386.833,352.5 387.5,353.167 388.5,353.5C 390.167,354.5 391.5,355.833 392.5,357.5C 392.427,359.027 393.094,360.027 394.5,360.5C 396.326,362.147 397.66,364.147 398.5,366.5C 398.427,368.027 399.094,369.027 400.5,369.5C 403.908,375.726 405.908,382.393 406.5,389.5C 405.596,388.791 405.263,387.791 405.5,386.5C 400.211,386.416 394.878,386.416 389.5,386.5C 388.478,386.855 387.811,387.522 387.5,388.5C 381.051,369.219 368.051,356.385 348.5,350C 341.385,349.203 334.385,347.87 327.5,346C 325.944,345.28 324.944,344.113 324.5,342.5C 324.167,340.5 323.833,338.5 323.5,336.5C 327.662,329.881 333.662,327.714 341.5,330C 345.532,330.773 349.532,331.606 353.5,332.5 Z"/></g>
<g><path style="opacity:0.043" fill="#1b1c2c" d="M 58.5,334.5 C 58.573,336.027 57.9063,337.027 56.5,337.5C 56.427,335.973 57.0937,334.973 58.5,334.5 Z"/></g>
<g><path style="opacity:0.114" fill="#313355" d="M 362.5,335.5 C 364.027,335.427 365.027,336.094 365.5,337.5C 363.973,337.573 362.973,336.906 362.5,335.5 Z"/></g>
<g><path style="opacity:0.043" fill="#1e2034" d="M 323.5,336.5 C 323.833,338.5 324.167,340.5 324.5,342.5C 322.539,340.68 322.206,338.68 323.5,336.5 Z"/></g>
<g><path style="opacity:0.505" fill="#484c82" d="M 115.5,337.5 C 120.049,337.624 124.382,338.291 128.5,339.5C 123.9,339.72 119.567,339.054 115.5,337.5 Z"/></g>
<g><path style="opacity:0.511" fill="#484d82" d="M 473.5,337.5 C 469.79,339.136 465.79,339.802 461.5,339.5C 465.295,338.383 469.295,337.717 473.5,337.5 Z"/></g>
<g><path style="opacity:0.392" fill="#3e426e" d="M 74.5,343.5 C 73.871,346.397 72.871,349.064 71.5,351.5C 71.3455,348.284 72.3455,345.617 74.5,343.5 Z"/></g>
<g><path style="opacity:0.388" fill="#33375b" d="M 535.5,343.5 C 536.612,345.599 537.279,347.933 537.5,350.5C 535.837,348.562 535.171,346.228 535.5,343.5 Z"/></g>
<g><path style="opacity:0.198" fill="#32375c" d="M 234.5,349.5 C 226.853,348.369 219.186,348.369 211.5,349.5C 218.259,347.615 225.259,347.115 232.5,348C 233.416,348.278 234.082,348.778 234.5,349.5 Z"/></g>
<g><path style="opacity:0.993" fill="#8c96fe" d="M 304.5,297.5 C 304.5,318.167 304.5,338.833 304.5,359.5C 303.907,362.5 303.074,365.5 302,368.5C 301.667,368.167 301.333,367.833 301,367.5C 298.4,369.891 295.733,369.891 293,367.5C 291.691,369.891 290.691,369.891 290,367.5C 289.667,368.167 289.333,368.833 289,369.5C 288.583,368.244 287.75,367.577 286.5,367.5C 286.5,345.167 286.5,322.833 286.5,300.5C 288.39,300.297 289.89,300.963 291,302.5C 291.956,301.106 293.289,300.439 295,300.5C 297.072,301.267 299.072,301.601 301,301.5C 302.771,300.653 303.937,299.32 304.5,297.5 Z"/></g>
<g><path style="opacity:0.004" fill="#171927" d="M 386.5,351.5 C 387.833,351.5 388.5,352.167 388.5,353.5C 387.5,353.167 386.833,352.5 386.5,351.5 Z"/></g>
<g><path style="opacity:0.113" fill="#232640" d="M 106.5,353.5 C 110.122,353.322 113.456,353.989 116.5,355.5C 112.922,355.451 109.589,354.785 106.5,353.5 Z"/></g>
<g><path style="opacity:0.109" fill="#242842" d="M 482.5,353.5 C 479.781,354.913 476.781,355.58 473.5,355.5C 476.219,354.087 479.219,353.42 482.5,353.5 Z"/></g>
<g><path style="opacity:0.271" fill="#282b46" d="M 392.5,357.5 C 393.906,357.973 394.573,358.973 394.5,360.5C 393.094,360.027 392.427,359.027 392.5,357.5 Z"/></g>
<g><path style="opacity:0.993" fill="#798eee" d="M 234.5,349.5 C 240.074,354.604 239.741,359.437 233.5,364C 227.849,365.016 222.182,365.85 216.5,366.5C 213.772,366.171 211.438,366.837 209.5,368.5C 190.308,376.015 178.308,389.682 173.5,409.5C 173.244,407.208 173.577,405.041 174.5,403C 172.888,402.28 171.388,402.446 170,403.5C 168.667,402.833 167.333,402.167 166,401.5C 163.107,401.953 160.107,401.953 157,401.5C 156.79,403.058 156.29,404.391 155.5,405.5C 162.482,375.185 181.148,356.518 211.5,349.5C 219.186,348.369 226.853,348.369 234.5,349.5 Z"/></g>
<g><path style="opacity:0.082" fill="#242841" d="M 216.5,366.5 C 214.401,367.612 212.067,368.279 209.5,368.5C 211.438,366.837 213.772,366.171 216.5,366.5 Z"/></g>
<g><path style="opacity:0.067" fill="#1d2136" d="M 398.5,366.5 C 399.906,366.973 400.573,367.973 400.5,369.5C 399.094,369.027 398.427,368.027 398.5,366.5 Z"/></g>
<g><path style="opacity:0.035" fill="#21263d" d="M 519.5,375.5 C 519.598,377.553 518.931,379.22 517.5,380.5C 517.402,378.447 518.069,376.78 519.5,375.5 Z"/></g>
<g><path style="opacity:0.999" fill="#7b98fe" d="M 304.5,359.5 C 304.5,374.5 304.5,389.5 304.5,404.5C 299.932,402.656 295.266,402.323 290.5,403.5C 289.459,401.009 288.626,401.009 288,403.5C 287.667,403.167 287.333,402.833 287,402.5C 286.5,390.838 286.333,379.171 286.5,367.5C 287.75,367.577 288.583,368.244 289,369.5C 289.333,368.833 289.667,368.167 290,367.5C 290.691,369.891 291.691,369.891 293,367.5C 295.733,369.891 298.4,369.891 301,367.5C 301.333,367.833 301.667,368.167 302,368.5C 303.074,365.5 303.907,362.5 304.5,359.5 Z"/></g>
<g><path style="opacity:0.627" fill="#2e395e" d="M 243.5,394.5 C 240.14,394.616 236.807,394.949 233.5,395.5C 236.708,393.469 240.041,393.135 243.5,394.5 Z"/></g>
<g><path style="opacity:0.18" fill="#34416c" d="M 387.5,390.5 C 389.439,394.531 389.939,398.864 389,403.5C 388.617,404.056 388.117,404.389 387.5,404.5C 388.673,399.858 388.673,395.191 387.5,390.5 Z"/></g>
<g><path style="opacity:0.072" fill="#2f3c64" d="M 406.5,389.5 C 407.434,392.656 408.101,395.989 408.5,399.5C 411.713,399.19 414.713,399.523 417.5,400.5C 414.167,400.5 410.833,400.5 407.5,400.5C 406.756,396.881 406.423,393.215 406.5,389.5 Z"/></g>
<g><path style="opacity:0.993" fill="#6e8fec" d="M 69.5,359.5 C 68.8908,376.69 74.8908,391.024 87.5,402.5C 93.228,406.892 99.228,410.892 105.5,414.5C 106.946,416.618 107.613,418.951 107.5,421.5C 106.842,420.602 106.176,419.602 105.5,418.5C 103.059,418.578 100.726,418.912 98.5,419.5C 97.4593,417.009 96.6259,417.009 96,419.5C 94.6667,418.833 93.3333,418.167 92,417.5C 90.3333,418.833 88.6667,418.833 87,417.5C 85.5177,419.781 83.851,419.781 82,417.5C 81.4867,418.527 80.9867,419.527 80.5,420.5C 65.318,410.503 55.818,396.503 52,378.5C 51.5008,373.845 51.3342,369.179 51.5,364.5C 52.1614,365.718 52.8281,367.051 53.5,368.5C 54.8333,368.167 56.1667,367.833 57.5,367.5C 60.0947,369.433 62.428,369.433 64.5,367.5C 65.5174,370.028 66.6841,370.028 68,367.5C 68.1829,364.635 68.6829,361.969 69.5,359.5 Z"/></g>
<g><path style="opacity:0.994" fill="#7094f5" d="M 406.5,389.5 C 406.423,393.215 406.756,396.881 407.5,400.5C 410.833,400.5 414.167,400.5 417.5,400.5C 425.658,401.477 428.158,405.811 425,413.5C 424.167,414.333 423.333,415.167 422.5,416C 415.85,417.307 409.183,418.474 402.5,419.5C 391.72,418.811 381.054,418.811 370.5,419.5C 369.833,419.167 369.167,418.833 368.5,418.5C 369.193,417.482 369.859,416.482 370.5,415.5C 375.619,411.1 381.286,407.433 387.5,404.5C 388.117,404.389 388.617,404.056 389,403.5C 389.939,398.864 389.439,394.531 387.5,390.5C 387.5,389.833 387.5,389.167 387.5,388.5C 387.811,387.522 388.478,386.855 389.5,386.5C 394.878,386.416 400.211,386.416 405.5,386.5C 405.263,387.791 405.596,388.791 406.5,389.5 Z"/></g>
<g><path style="opacity:0.993" fill="#6d8fed" d="M 517.5,381.5 C 517.193,383.446 517.193,385.113 517.5,386.5C 523.361,387.444 529.361,387.444 535.5,386.5C 530.58,400.337 522.247,411.671 510.5,420.5C 510.38,419.414 509.713,418.747 508.5,418.5C 504.964,419.416 501.13,419.083 497,417.5C 496.196,418.804 495.029,419.471 493.5,419.5C 491.097,419.825 488.931,419.492 487,418.5C 485.267,420.958 484.1,420.625 483.5,417.5C 483.628,415.91 484.295,414.577 485.5,413.5C 499.908,406.425 510.575,395.759 517.5,381.5 Z"/></g>
<g><path style="opacity:0.106" fill="#1d253c" d="M 233.5,408.5 C 235.027,408.427 236.027,409.094 236.5,410.5C 234.973,410.573 233.973,409.906 233.5,408.5 Z"/></g>
<g><path style="opacity:0.998" fill="#698feb" d="M 285.5,246.5 C 286.492,253.982 286.825,261.648 286.5,269.5C 286.5,279.833 286.5,290.167 286.5,300.5C 286.5,322.833 286.5,345.167 286.5,367.5C 286.333,379.171 286.5,390.838 287,402.5C 287.333,402.833 287.667,403.167 288,403.5C 288.626,401.009 289.459,401.009 290.5,403.5C 295.266,402.323 299.932,402.656 304.5,404.5C 304.5,416.833 304.5,429.167 304.5,441.5C 303.835,439.631 303.169,437.631 302.5,435.5C 301.108,436.605 299.941,437.939 299,439.5C 295.59,438.126 295.757,437.459 299.5,437.5C 299.719,436.325 299.386,435.325 298.5,434.5C 296.815,436.017 295.315,437.684 294,439.5C 292.107,438.673 289.941,438.673 287.5,439.5C 287.167,439.333 286.833,439.167 286.5,439C 288.037,437.89 288.703,436.39 288.5,434.5C 285.402,434.413 285.068,434.913 287.5,436C 285.049,438.84 282.549,439.006 280,436.5C 278.951,437.517 277.784,437.684 276.5,437C 277.654,436.086 277.487,435.253 276,434.5C 275.667,434.833 275.333,435.167 275,435.5C 274.583,434.244 273.75,433.577 272.5,433.5C 267.437,428.432 262.104,423.765 256.5,419.5C 256.027,418.094 255.027,417.427 253.5,417.5C 247.714,415.352 242.047,413.019 236.5,410.5C 236.027,409.094 235.027,408.427 233.5,408.5C 232.25,408.423 231.417,407.756 231,406.5C 230.333,403.5 230.333,400.5 231,397.5C 231.995,396.934 232.828,396.267 233.5,395.5C 236.807,394.949 240.14,394.616 243.5,394.5C 259.529,398.762 273.362,406.762 285,418.5C 285.5,361.168 285.667,303.834 285.5,246.5 Z"/></g>
<g><path style="opacity:0.995" fill="#6994f2" d="M 173.5,409.5 C 173.174,413.884 173.508,418.217 174.5,422.5C 181.407,425.77 187.741,429.77 193.5,434.5C 193.178,437.812 191.845,437.812 189.5,434.5C 187.54,435.723 185.707,437.056 184,438.5C 183.751,437.376 183.251,436.376 182.5,435.5C 180.833,435.5 179.167,435.5 177.5,435.5C 174.68,436.65 174.346,437.816 176.5,439C 175.833,439.167 175.167,439.333 174.5,439.5C 171.039,437.448 169.039,434.781 168.5,431.5C 167.692,431.808 167.025,432.308 166.5,433C 167.451,433.718 167.617,434.551 167,435.5C 165.13,434.491 162.963,434.324 160.5,435C 159.5,431.667 158.5,431.667 157.5,435C 158.056,435.383 158.389,435.883 158.5,436.5C 152.796,435.993 147.129,435.16 141.5,434C 139.416,433.303 137.749,432.136 136.5,430.5C 136.167,428.5 135.833,426.5 135.5,424.5C 135.738,421.852 137.072,420.018 139.5,419C 144.066,417.691 148.733,417.191 153.5,417.5C 153.198,413.21 153.864,409.21 155.5,405.5C 156.29,404.391 156.79,403.058 157,401.5C 160.107,401.953 163.107,401.953 166,401.5C 167.333,402.167 168.667,402.833 170,403.5C 171.388,402.446 172.888,402.28 174.5,403C 173.577,405.041 173.244,407.208 173.5,409.5 Z"/></g>
<g><path style="opacity:0.129" fill="#273353" d="M 253.5,417.5 C 255.027,417.427 256.027,418.094 256.5,419.5C 254.973,419.573 253.973,418.906 253.5,417.5 Z"/></g>
<g><path style="opacity:0.994" fill="#6292ee" d="M 370.5,415.5 C 369.859,416.482 369.193,417.482 368.5,418.5C 369.167,418.833 369.833,419.167 370.5,419.5C 381.054,418.811 391.72,418.811 402.5,419.5C 382.604,425.729 369.271,438.729 362.5,458.5C 360.783,461.845 360.116,465.511 360.5,469.5C 360.655,473.435 358.988,476.102 355.5,477.5C 353.143,477.663 350.81,477.497 348.5,477C 347.09,475.628 345.423,474.795 343.5,474.5C 342.566,473.432 342.232,472.099 342.5,470.5C 343.127,465.859 343.46,461.193 343.5,456.5C 344.171,451.153 345.838,446.153 348.5,441.5C 349.906,441.027 350.573,440.027 350.5,438.5C 351.739,435.411 353.239,432.411 355,429.5C 357.374,427.461 359.374,425.128 361,422.5C 364.063,419.924 367.229,417.591 370.5,415.5 Z"/></g>
<g><path style="opacity:0.093" fill="#141c2e" d="M 483.5,417.5 C 482.919,426.311 482.252,434.977 481.5,443.5C 481.334,435.493 481.5,427.493 482,419.5C 482.278,418.584 482.778,417.918 483.5,417.5 Z"/></g>
<g><path style="opacity:0.29" fill="#293759" d="M 81.5,421.5 C 83.0269,421.427 84.0269,422.094 84.5,423.5C 82.9731,423.573 81.9731,422.906 81.5,421.5 Z"/></g>
<g><path style="opacity:0.016" fill="#171c2b" d="M 135.5,424.5 C 135.833,426.5 136.167,428.5 136.5,430.5C 134.539,428.68 134.206,426.68 135.5,424.5 Z"/></g>
<g><path style="opacity:0.68" fill="#4666a8" d="M 86.5,424.5 C 87.4959,424.414 88.3292,424.748 89,425.5C 89.2947,433.859 89.7947,442.192 90.5,450.5C 89.7321,449.737 89.2321,448.737 89,447.5C 88.6667,440.5 88.3333,433.5 88,426.5C 87.2828,425.956 86.7828,425.289 86.5,424.5 Z"/></g>
<g><path style="opacity:0.994" fill="#6597f5" d="M 107.5,421.5 C 108.493,430.318 108.827,439.318 108.5,448.5C 108.819,450.75 108.319,452.75 107,454.5C 102.775,453.619 98.4413,453.619 94,454.5C 92.8873,453.695 91.7206,453.028 90.5,452.5C 90.5,451.833 90.5,451.167 90.5,450.5C 89.7947,442.192 89.2947,433.859 89,425.5C 88.3292,424.748 87.4959,424.414 86.5,424.5C 85.5084,424.672 84.8417,424.338 84.5,423.5C 84.0269,422.094 83.0269,421.427 81.5,421.5C 80.8333,421.5 80.5,421.167 80.5,420.5C 80.9867,419.527 81.4867,418.527 82,417.5C 83.851,419.781 85.5177,419.781 87,417.5C 88.6667,418.833 90.3333,418.833 92,417.5C 93.3333,418.167 94.6667,418.833 96,419.5C 96.6259,417.009 97.4593,417.009 98.5,419.5C 100.726,418.912 103.059,418.578 105.5,418.5C 106.176,419.602 106.842,420.602 107.5,421.5 Z"/></g>
<g><path style="opacity:0.995" fill="#5b93ed" d="M 193.5,434.5 C 200.602,439.936 206.268,446.602 210.5,454.5C 210.427,456.027 211.094,457.027 212.5,457.5C 218.215,468.121 220.382,479.454 219,491.5C 213.333,498.167 207.667,498.167 202,491.5C 201.047,488.568 200.547,485.568 200.5,482.5C 200.876,477.727 199.876,473.393 197.5,469.5C 189.32,452.809 176.32,441.809 158.5,436.5C 158.389,435.883 158.056,435.383 157.5,435C 158.5,431.667 159.5,431.667 160.5,435C 162.963,434.324 165.13,434.491 167,435.5C 167.617,434.551 167.451,433.718 166.5,433C 167.025,432.308 167.692,431.808 168.5,431.5C 169.039,434.781 171.039,437.448 174.5,439.5C 175.167,439.333 175.833,439.167 176.5,439C 174.346,437.816 174.68,436.65 177.5,435.5C 179.167,435.5 180.833,435.5 182.5,435.5C 183.251,436.376 183.751,437.376 184,438.5C 185.707,437.056 187.54,435.723 189.5,434.5C 191.845,437.812 193.178,437.812 193.5,434.5 Z"/></g>
<g><path style="opacity:0.996" fill="#689bfc" d="M 483.5,417.5 C 484.1,420.625 485.267,420.958 487,418.5C 488.931,419.492 491.097,419.825 493.5,419.5C 495.029,419.471 496.196,418.804 497,417.5C 501.13,419.083 504.964,419.416 508.5,418.5C 509.713,418.747 510.38,419.414 510.5,420.5C 508.099,422.562 505.433,424.229 502.5,425.5C 500.698,433.12 499.698,441.12 499.5,449.5C 499.5,450.167 499.5,450.833 499.5,451.5C 498.685,452.429 497.852,453.429 497,454.5C 495.605,453.57 494.105,453.57 492.5,454.5C 490.878,452.146 489.378,452.146 488,454.5C 486.434,455.061 485.101,454.394 484,452.5C 482.915,454.657 481.749,454.824 480.5,453C 481.38,451.644 481.714,450.144 481.5,448.5C 481.5,446.833 481.5,445.167 481.5,443.5C 482.252,434.977 482.919,426.311 483.5,417.5 Z"/></g>
<g><path style="opacity:0.512" fill="#4465a4" d="M 502.5,425.5 C 501.703,432.421 501.203,439.421 501,446.5C 500.768,447.737 500.268,448.737 499.5,449.5C 499.698,441.12 500.698,433.12 502.5,425.5 Z"/></g>
<g><path style="opacity:0.082" fill="#172033" d="M 350.5,438.5 C 350.573,440.027 349.906,441.027 348.5,441.5C 348.427,439.973 349.094,438.973 350.5,438.5 Z"/></g>
<g><path style="opacity:0.129" fill="#2a3d62" d="M 279.5,445.5 C 281.448,447.32 282.448,449.654 282.5,452.5C 280.935,450.491 279.935,448.157 279.5,445.5 Z"/></g>
<g><path style="opacity:0.082" fill="#1a263c" d="M 210.5,454.5 C 211.906,454.973 212.573,455.973 212.5,457.5C 211.094,457.027 210.427,456.027 210.5,454.5 Z"/></g>
<g><path style="opacity:0.465" fill="#2b446d" d="M 343.5,456.5 C 343.46,461.193 343.127,465.859 342.5,470.5C 341.853,469.726 341.52,468.726 341.5,467.5C 341.932,463.65 342.598,459.983 343.5,456.5 Z"/></g>
<g><path style="opacity:0.4" fill="#2b456e" d="M 362.5,458.5 C 362.192,462.36 361.525,466.026 360.5,469.5C 360.116,465.511 360.783,461.845 362.5,458.5 Z"/></g>
<g><path style="opacity:0.31" fill="#223551" d="M 123.5,474.5 C 124.906,474.973 125.573,475.973 125.5,477.5C 124.094,477.027 123.427,476.027 123.5,474.5 Z"/></g>
<g><path style="opacity:0.91" fill="#2d4c78" d="M 343.5,474.5 C 345.423,474.795 347.09,475.628 348.5,477C 350.81,477.497 353.143,477.663 355.5,477.5C 350.798,479.41 346.798,478.41 343.5,474.5 Z"/></g>
<g><path style="opacity:0.341" fill="#2a456c" d="M 197.5,469.5 C 199.876,473.393 200.876,477.727 200.5,482.5C 199.373,478.317 198.373,473.983 197.5,469.5 Z"/></g>
<g><path style="opacity:0.004" fill="#121a26" d="M 135.5,484.5 C 137.027,484.427 138.027,485.094 138.5,486.5C 136.973,486.573 135.973,485.906 135.5,484.5 Z"/></g>
<g><path style="opacity:0.995" fill="#4f96ef" d="M 108.5,448.5 C 111.924,458.007 116.924,466.674 123.5,474.5C 123.427,476.027 124.094,477.027 125.5,477.5C 128.842,479.836 132.175,482.169 135.5,484.5C 135.973,485.906 136.973,486.573 138.5,486.5C 144.986,489.611 151.652,492.445 158.5,495C 164.167,501.333 169.833,507.667 175.5,514C 180.798,518.479 186.464,522.313 192.5,525.5C 191.518,526.141 190.518,526.807 189.5,527.5C 186.382,524.254 184.215,525.254 183,530.5C 182.667,528.833 182.333,527.167 182,525.5C 181.612,527.715 180.612,529.048 179,529.5C 178.667,528.833 178.333,528.167 178,527.5C 176.488,529.957 175.154,529.957 174,527.5C 173.667,528.167 173.333,528.833 173,529.5C 172.751,528.376 172.251,527.376 171.5,526.5C 169.989,528.816 169.656,531.149 170.5,533.5C 161.433,527.271 153.433,519.771 146.5,511C 140.549,508.634 134.882,505.801 129.5,502.5C 129.027,501.094 128.027,500.427 126.5,500.5C 108.032,489.363 96.0319,473.363 90.5,452.5C 91.7206,453.028 92.8873,453.695 94,454.5C 98.4413,453.619 102.775,453.619 107,454.5C 108.319,452.75 108.819,450.75 108.5,448.5 Z"/></g>
<g><path style="opacity:0.997" fill="#589bf8" d="M 272.5,433.5 C 273.75,433.577 274.583,434.244 275,435.5C 275.333,435.167 275.667,434.833 276,434.5C 277.487,435.253 277.654,436.086 276.5,437C 277.784,437.684 278.951,437.517 280,436.5C 282.549,439.006 285.049,438.84 287.5,436C 285.068,434.913 285.402,434.413 288.5,434.5C 288.703,436.39 288.037,437.89 286.5,439C 286.833,439.167 287.167,439.333 287.5,439.5C 289.941,438.673 292.107,438.673 294,439.5C 295.315,437.684 296.815,436.017 298.5,434.5C 299.386,435.325 299.719,436.325 299.5,437.5C 295.757,437.459 295.59,438.126 299,439.5C 299.941,437.939 301.108,436.605 302.5,435.5C 303.169,437.631 303.835,439.631 304.5,441.5C 304.333,454.504 304.5,467.504 305,480.5C 306.552,485.661 308.385,490.661 310.5,495.5C 310.427,497.027 311.094,498.027 312.5,498.5C 313.338,498.842 313.672,499.508 313.5,500.5C 313.209,501.649 312.376,502.316 311,502.5C 309.634,502.294 308.301,501.96 307,501.5C 305.307,503.454 303.307,503.454 301,501.5C 300.333,502.833 299.667,502.833 299,501.5C 298.667,502.167 298.333,502.833 298,503.5C 296.887,502.289 295.72,502.289 294.5,503.5C 292.564,501.022 290.564,501.022 288.5,503.5C 287.5,502.167 286.5,502.167 285.5,503.5C 284.184,500.972 283.017,500.972 282,503.5C 280.89,501.963 279.39,501.297 277.5,501.5C 277.5,500.5 277.5,499.5 277.5,498.5C 282.863,488.192 285.363,477.192 285,465.5C 284.1,461.166 283.266,456.832 282.5,452.5C 282.448,449.654 281.448,447.32 279.5,445.5C 277.167,441.5 274.833,437.5 272.5,433.5 Z"/></g>
<g><path style="opacity:0.995" fill="#4f95ed" d="M 481.5,448.5 C 481.714,450.144 481.38,451.644 480.5,453C 481.749,454.824 482.915,454.657 484,452.5C 485.101,454.394 486.434,455.061 488,454.5C 489.378,452.146 490.878,452.146 492.5,454.5C 494.105,453.57 495.605,453.57 497,454.5C 497.852,453.429 498.685,452.429 499.5,451.5C 495.044,470.813 484.71,486.313 468.5,498C 460.523,503.098 452.189,507.431 443.5,511C 436.587,519.749 428.587,527.249 419.5,533.5C 419.5,532.5 419.5,531.5 419.5,530.5C 418.127,530.657 416.793,530.49 415.5,530C 417.007,529.163 417.507,527.996 417,526.5C 415.221,527.479 413.555,527.146 412,525.5C 411.389,527.75 410.056,529.417 408,530.5C 407.667,529.167 407.333,527.833 407,526.5C 404.885,529.318 403.052,529.151 401.5,526C 402.167,525.667 402.833,525.333 403.5,525C 402.056,524.219 400.723,524.386 399.5,525.5C 400.645,526.891 400.645,528.224 399.5,529.5C 398.614,528.675 398.281,527.675 398.5,526.5C 397.167,526.5 395.833,526.5 394.5,526.5C 405.18,521.835 414.513,515.169 422.5,506.5C 423.906,506.027 424.573,505.027 424.5,503.5C 428.877,495.797 435.544,491.297 444.5,490C 456.847,484.314 466.68,475.814 474,464.5C 476.812,459.192 479.312,453.859 481.5,448.5 Z"/></g>
<g><path style="opacity:0.086" fill="#18283e" d="M 310.5,495.5 C 311.906,495.973 312.573,496.973 312.5,498.5C 311.094,498.027 310.427,497.027 310.5,495.5 Z"/></g>
<g><path style="opacity:0.11" fill="#1d3451" d="M 126.5,500.5 C 128.027,500.427 129.027,501.094 129.5,502.5C 127.973,502.573 126.973,501.906 126.5,500.5 Z"/></g>
<g><path style="opacity:0.995" fill="#4897ee" d="M 277.5,498.5 C 277.5,499.5 277.5,500.5 277.5,501.5C 279.39,501.297 280.89,501.963 282,503.5C 283.017,500.972 284.184,500.972 285.5,503.5C 286.5,502.167 287.5,502.167 288.5,503.5C 290.564,501.022 292.564,501.022 294.5,503.5C 295.72,502.289 296.887,502.289 298,503.5C 298.333,502.833 298.667,502.167 299,501.5C 299.667,502.833 300.333,502.833 301,501.5C 303.307,503.454 305.307,503.454 307,501.5C 308.301,501.96 309.634,502.294 311,502.5C 312.376,502.316 313.209,501.649 313.5,500.5C 315.167,502.5 316.833,504.5 318.5,506.5C 318.427,508.027 319.094,509.027 320.5,509.5C 327.636,515.642 335.303,520.976 343.5,525.5C 343.833,526.167 344.167,526.833 344.5,527.5C 344.062,527.435 343.728,527.601 343.5,528C 344.167,528.333 344.833,528.667 345.5,529C 344.167,529.667 342.833,529.667 341.5,529C 341.833,528.667 342.167,528.333 342.5,528C 340.99,527.15 339.49,526.317 338,525.5C 335.976,525.8 335.476,526.633 336.5,528C 335.851,530.481 334.851,530.814 333.5,529C 333.833,528.667 334.167,528.333 334.5,528C 333.773,526.601 333.273,525.101 333,523.5C 333.213,525.751 332.213,527.751 330,529.5C 329.667,528.833 329.333,528.167 329,527.5C 327.582,529.363 325.749,529.863 323.5,529C 324.471,527.796 325.471,527.296 326.5,527.5C 326,526.5 325.5,525.5 325,524.5C 322.5,526.333 320,528.167 317.5,530C 318.056,530.383 318.389,530.883 318.5,531.5C 308.853,525.352 301.02,517.352 295,507.5C 288.334,517.999 279.834,526.665 269.5,533.5C 269.5,532.5 269.5,531.5 269.5,530.5C 267.712,530.785 266.045,530.452 264.5,529.5C 265.855,528.325 265.688,527.325 264,526.5C 262.992,526.982 261.825,527.148 260.5,527C 261.696,527.654 261.696,528.154 260.5,528.5C 259.757,527.092 258.923,525.759 258,524.5C 255.641,525.72 254.141,527.053 253.5,528.5C 251.279,527.884 250.612,526.717 251.5,525C 250.552,524.517 249.552,524.351 248.5,524.5C 260.408,518.372 270.075,509.705 277.5,498.5 Z"/></g>
<g><path style="opacity:0.282" fill="#1f3552" d="M 424.5,503.5 C 424.573,505.027 423.906,506.027 422.5,506.5C 422.427,504.973 423.094,503.973 424.5,503.5 Z"/></g>
<g><path style="opacity:0.145" fill="#1b2f48" d="M 318.5,506.5 C 319.906,506.973 320.573,507.973 320.5,509.5C 319.094,509.027 318.427,508.027 318.5,506.5 Z"/></g>
<g><path style="opacity:0.133" fill="#1b3652" d="M 172.5,534.5 C 174.027,534.427 175.027,535.094 175.5,536.5C 173.973,536.573 172.973,535.906 172.5,534.5 Z"/></g>
<g><path style="opacity:0.994" fill="#419cf3" d="M 248.5,524.5 C 249.552,524.351 250.552,524.517 251.5,525C 250.612,526.717 251.279,527.884 253.5,528.5C 254.141,527.053 255.641,525.72 258,524.5C 258.923,525.759 259.757,527.092 260.5,528.5C 261.696,528.154 261.696,527.654 260.5,527C 261.825,527.148 262.992,526.982 264,526.5C 265.688,527.325 265.855,528.325 264.5,529.5C 266.045,530.452 267.712,530.785 269.5,530.5C 269.5,531.5 269.5,532.5 269.5,533.5C 250.428,546.186 229.428,550.853 206.5,547.5C 203.829,545.882 200.829,545.215 197.5,545.5C 189.619,543.656 182.285,540.656 175.5,536.5C 175.027,535.094 174.027,534.427 172.5,534.5C 171.508,534.672 170.842,534.338 170.5,533.5C 169.656,531.149 169.989,528.816 171.5,526.5C 172.251,527.376 172.751,528.376 173,529.5C 173.333,528.833 173.667,528.167 174,527.5C 175.154,529.957 176.488,529.957 178,527.5C 178.333,528.167 178.667,528.833 179,529.5C 180.612,529.048 181.612,527.715 182,525.5C 182.333,527.167 182.667,528.833 183,530.5C 184.215,525.254 186.382,524.254 189.5,527.5C 190.518,526.807 191.518,526.141 192.5,525.5C 192.833,525.5 193.167,525.5 193.5,525.5C 194.504,526.683 195.338,528.016 196,529.5C 199.112,528.427 202.279,528.427 205.5,529.5C 208.385,529.194 211.052,529.527 213.5,530.5C 218.316,531.65 223.316,531.816 228.5,531C 231.851,530.943 234.851,530.109 237.5,528.5C 241.081,527.193 244.747,525.859 248.5,524.5 Z"/></g>
<g><path style="opacity:0.523" fill="#2c649d" d="M 237.5,528.5 C 234.851,530.109 231.851,530.943 228.5,531C 223.316,531.816 218.316,531.65 213.5,530.5C 221.584,530.685 229.584,530.018 237.5,528.5 Z"/></g>
<g><path style="opacity:0.963" fill="#30649d" d="M 193.5,525.5 C 197.735,526.467 201.735,527.8 205.5,529.5C 202.279,528.427 199.112,528.427 196,529.5C 195.338,528.016 194.504,526.683 193.5,525.5 Z"/></g>
<g><path style="opacity:0.125" fill="#162d46" d="M 324.5,535.5 C 326.027,535.427 327.027,536.094 327.5,537.5C 325.973,537.573 324.973,536.906 324.5,535.5 Z"/></g>
<g><path style="opacity:0.994" fill="#409af2" d="M 344.5,527.5 C 345.735,527.721 346.735,528.388 347.5,529.5C 349.786,528.58 352.119,528.58 354.5,529.5C 368.062,531.252 381.396,530.252 394.5,526.5C 395.833,526.5 397.167,526.5 398.5,526.5C 398.281,527.675 398.614,528.675 399.5,529.5C 400.645,528.224 400.645,526.891 399.5,525.5C 400.723,524.386 402.056,524.219 403.5,525C 402.833,525.333 402.167,525.667 401.5,526C 403.052,529.151 404.885,529.318 407,526.5C 407.333,527.833 407.667,529.167 408,530.5C 410.056,529.417 411.389,527.75 412,525.5C 413.555,527.146 415.221,527.479 417,526.5C 417.507,527.996 417.007,529.163 415.5,530C 416.793,530.49 418.127,530.657 419.5,530.5C 419.5,531.5 419.5,532.5 419.5,533.5C 416.735,535.601 413.735,537.267 410.5,538.5C 408.62,538.229 407.287,538.896 406.5,540.5C 387.538,548.869 367.871,550.702 347.5,546C 340.693,543.455 334.026,540.621 327.5,537.5C 327.027,536.094 326.027,535.427 324.5,535.5C 322.147,534.66 320.147,533.326 318.5,531.5C 318.389,530.883 318.056,530.383 317.5,530C 320,528.167 322.5,526.333 325,524.5C 325.5,525.5 326,526.5 326.5,527.5C 325.471,527.296 324.471,527.796 323.5,529C 325.749,529.863 327.582,529.363 329,527.5C 329.333,528.167 329.667,528.833 330,529.5C 332.213,527.751 333.213,525.751 333,523.5C 333.273,525.101 333.773,526.601 334.5,528C 334.167,528.333 333.833,528.667 333.5,529C 334.851,530.814 335.851,530.481 336.5,528C 335.476,526.633 335.976,525.8 338,525.5C 339.49,526.317 340.99,527.15 342.5,528C 342.167,528.333 341.833,528.667 341.5,529C 342.833,529.667 344.167,529.667 345.5,529C 344.833,528.667 344.167,528.333 343.5,528C 343.728,527.601 344.062,527.435 344.5,527.5 Z"/></g>
<g><path style="opacity:0.949" fill="#3068a3" d="M 343.5,525.5 C 347.431,526.389 351.098,527.722 354.5,529.5C 352.119,528.58 349.786,528.58 347.5,529.5C 346.735,528.388 345.735,527.721 344.5,527.5C 344.167,526.833 343.833,526.167 343.5,525.5 Z"/></g>
<g><path style="opacity:0.024" fill="#172b42" d="M 410.5,538.5 C 409.486,539.674 408.153,540.34 406.5,540.5C 407.287,538.896 408.62,538.229 410.5,538.5 Z"/></g>
<g><path style="opacity:0.18" fill="#173552" d="M 197.5,545.5 C 200.829,545.215 203.829,545.882 206.5,547.5C 203.273,547.324 200.273,546.657 197.5,545.5 Z"/></g>
</svg>
